<mxfile host="Electron" agent="Mozilla/5.0 (X11; Linux x86_64) AppleWebKit/537.36 (KHTML, like Gecko) draw.io/25.0.2 Chrome/128.0.6613.186 Electron/32.2.5 Safari/537.36" version="25.0.2">
  <diagram name="Page-1" id="2MYuPslPh6wgR6PDxYFr">
    <mxGraphModel dx="1618" dy="1554" grid="1" gridSize="10" guides="1" tooltips="1" connect="1" arrows="1" fold="1" page="1" pageScale="1" pageWidth="850" pageHeight="1100" math="0" shadow="0">
      <root>
        <mxCell id="0" />
        <mxCell id="1" parent="0" />
        <mxCell id="XaXqWwQPE1AyAoHPwtIc-2" value="RAM&lt;div&gt;CY7C128-25PC&lt;/div&gt;" style="rounded=0;whiteSpace=wrap;html=1;" parent="1" vertex="1">
          <mxGeometry x="191.81" y="289" width="108.82" height="411" as="geometry" />
        </mxCell>
        <mxCell id="XaXqWwQPE1AyAoHPwtIc-3" value="ALU" style="shape=stencil(rZTvDoIgFMWfhq8OIZt9bFbvQUrJInBg/96+q5RTzFbU5tzuOd6fXDmCaGZLVnFEcInoChESYwx3qC9ezWzF89qJZ2YE20ruHFsbfeAXUdQPhlAlN6JuXLpGeAnPNBfNcq0UQIRWduD0fIAxoaAXXx0MR8S95vaoXYXI5gtE+jsiGSDiEAT2lhHNQiix9z2ieQhl4UGS1xCagTK1bTTbsvywN/qkinHXpLfThr8wOltI6SL1ZqiKNWEbGU/7qM+8N+3nu/8ESKF6AI/Q/RPfMNI/MLqm8FHmPxOSIYEGIGYBi8iltu8SAfpEKOCMm4pT2zbKY6u6c7EV7g==);whiteSpace=wrap;html=1;" parent="1" vertex="1">
          <mxGeometry x="597.1800000000001" y="432" width="240" height="100.65" as="geometry" />
        </mxCell>
        <mxCell id="XaXqWwQPE1AyAoHPwtIc-4" value="PC&lt;div&gt;SN54AS867&lt;br&gt;&lt;/div&gt;" style="rounded=0;whiteSpace=wrap;html=1;" parent="1" vertex="1">
          <mxGeometry x="190.81" y="-60" width="169.19" height="120" as="geometry" />
        </mxCell>
        <mxCell id="XaXqWwQPE1AyAoHPwtIc-5" value="DEC" style="rounded=0;whiteSpace=wrap;html=1;" parent="1" vertex="1">
          <mxGeometry x="321" y="110" width="133.83" height="80" as="geometry" />
        </mxCell>
        <mxCell id="XaXqWwQPE1AyAoHPwtIc-35" value="" style="group" parent="1" vertex="1" connectable="0">
          <mxGeometry x="651" y="510" width="151.4" height="120" as="geometry" />
        </mxCell>
        <mxCell id="XaXqWwQPE1AyAoHPwtIc-8" value="" style="shape=stencil(pZXhboMgFIWfhr+Lgo3dz4Vt70Ht7SSlYIC129sXRZNSlVhIjAnnyMe9RwiIUNOyDhAuWkQ+EcZV4V5ueAuHzHTQWK9dmebsIMA7xmp1hhs/2pHAZQua294lX6j4cN/0D6GNktJBuJImcB58B2NcurnFn4eNy/+Po7d654XOLXEBC9obpVcR/t5MLrPIhDplrSFCD6w5/2j1K4+L9XSsD2tmTPZFXeGh0DCDKZLlXieE4HIdUSUgSIggmxCNUAYi/8XpsygGdSU/Qk9KQyTYExfCb8jIqi+ln9J2NPxtiLCIp/BTtsATYtsWiFaRkkWVnwWusrPAdYAod/mI/euNlO8hok6oAocInI+IZrF8Yidv9eAN02Ynd1D97TMIdw==);html=1;verticalAlign=top;align=left;spacingTop=25;spacing=0;spacingLeft=35;direction=east;fillColor=none;rotation=90;" parent="XaXqWwQPE1AyAoHPwtIc-35" vertex="1">
          <mxGeometry x="0.411014746345172" y="68.57142857142857" width="31.49241794813786" height="34.285714285714285" as="geometry" />
        </mxCell>
        <mxCell id="XaXqWwQPE1AyAoHPwtIc-9" value="" style="shape=stencil(pZXhboMgFIWfhr+Lgo3dz4Vt70Ht7SSlYIC129sXRZNSlVhIjAnnyMe9RwiIUNOyDhAuWkQ+EcZV4V5ueAuHzHTQWK9dmebsIMA7xmp1hhs/2pHAZQua294lX6j4cN/0D6GNktJBuJImcB58B2NcurnFn4eNy/+Po7d654XOLXEBC9obpVcR/t5MLrPIhDplrSFCD6w5/2j1K4+L9XSsD2tmTPZFXeGh0DCDKZLlXieE4HIdUSUgSIggmxCNUAYi/8XpsygGdSU/Qk9KQyTYExfCb8jIqi+ln9J2NPxtiLCIp/BTtsATYtsWiFaRkkWVnwWusrPAdYAod/mI/euNlO8hok6oAocInI+IZrF8Yidv9eAN02Ynd1D97TMIdw==);html=1;verticalAlign=top;align=left;spacingTop=25;spacing=0;spacingLeft=35;direction=east;fillColor=none;rotation=90;" parent="XaXqWwQPE1AyAoHPwtIc-35" vertex="1">
          <mxGeometry x="61.5065371815175" y="69.28142857142856" width="31.49241794813786" height="34.285714285714285" as="geometry" />
        </mxCell>
        <mxCell id="XaXqWwQPE1AyAoHPwtIc-10" value="" style="shape=stencil(pZXhboMgFIWfhr+Lgo3dz4Vt70Ht7SSlYIC129sXRZNSlVhIjAnnyMe9RwiIUNOyDhAuWkQ+EcZV4V5ueAuHzHTQWK9dmebsIMA7xmp1hhs/2pHAZQua294lX6j4cN/0D6GNktJBuJImcB58B2NcurnFn4eNy/+Po7d654XOLXEBC9obpVcR/t5MLrPIhDplrSFCD6w5/2j1K4+L9XSsD2tmTPZFXeGh0DCDKZLlXieE4HIdUSUgSIggmxCNUAYi/8XpsygGdSU/Qk9KQyTYExfCb8jIqi+ln9J2NPxtiLCIp/BTtsATYtsWiFaRkkWVnwWusrPAdYAod/mI/euNlO8hok6oAocInI+IZrF8Yidv9eAN02Ynd1D97TMIdw==);html=1;verticalAlign=top;align=left;spacingTop=25;spacing=0;spacingLeft=35;direction=east;fillColor=none;rotation=90;" parent="XaXqWwQPE1AyAoHPwtIc-35" vertex="1">
          <mxGeometry x="88.26205961668983" y="68.57142857142857" width="31.49241794813786" height="34.285714285714285" as="geometry" />
        </mxCell>
        <mxCell id="XaXqWwQPE1AyAoHPwtIc-11" value="" style="shape=stencil(pZXhboMgFIWfhr+Lgo3dz4Vt70Ht7SSlYIC129sXRZNSlVhIjAnnyMe9RwiIUNOyDhAuWkQ+EcZV4V5ueAuHzHTQWK9dmebsIMA7xmp1hhs/2pHAZQua294lX6j4cN/0D6GNktJBuJImcB58B2NcurnFn4eNy/+Po7d654XOLXEBC9obpVcR/t5MLrPIhDplrSFCD6w5/2j1K4+L9XSsD2tmTPZFXeGh0DCDKZLlXieE4HIdUSUgSIggmxCNUAYi/8XpsygGdSU/Qk9KQyTYExfCb8jIqi+ln9J2NPxtiLCIp/BTtsATYtsWiFaRkkWVnwWusrPAdYAod/mI/euNlO8hok6oAocInI+IZrF8Yidv9eAN02Ynd1D97TMIdw==);html=1;verticalAlign=top;align=left;spacingTop=25;spacing=0;spacingLeft=35;direction=east;fillColor=none;rotation=90;" parent="XaXqWwQPE1AyAoHPwtIc-35" vertex="1">
          <mxGeometry x="118.50758205186214" y="68.57142857142857" width="31.49241794813786" height="34.285714285714285" as="geometry" />
        </mxCell>
        <mxCell id="XaXqWwQPE1AyAoHPwtIc-12" value="" style="shape=stencil(tZRNDoIwEIVP063pj7g3qPcoOEojtKRU1NtbqBgr1CjChmTey3y8ZqZFLK4yXgKiOENsgyil2H5sefFLXpWQGqfVXAue5OCcymh1govYmwdByAy0MI3LtgivUcPAiMWpktJChJKV57z4FsaFtL346mCP39+8qrT8AgxopxKnIrr7HruI5gGTmfL62C795HmnA/uJyVyDmwxMxmNZbJXQcrM44enpqNVZ7vtdQe+gNAwYT1vkubt4H45Z8uZK9ozOLlQNL+cfvGnD6I6QCxkmRL8Tlv8C3iIQOgKxmjjER0K7BIE52ac5NOG2rbcireqe81a4Aw==);whiteSpace=wrap;html=1;" parent="XaXqWwQPE1AyAoHPwtIc-35" vertex="1">
          <mxGeometry x="0.411014746345172" y="102.85714285714285" width="15.74620897406893" height="17.142857142857142" as="geometry" />
        </mxCell>
        <mxCell id="XaXqWwQPE1AyAoHPwtIc-13" value="" style="shape=stencil(tZRNDoIwEIVP063pj7g3qPcoOEojtKRU1NtbqBgr1CjChmTey3y8ZqZFLK4yXgKiOENsgyil2H5sefFLXpWQGqfVXAue5OCcymh1govYmwdByAy0MI3LtgivUcPAiMWpktJChJKV57z4FsaFtL346mCP39+8qrT8AgxopxKnIrr7HruI5gGTmfL62C795HmnA/uJyVyDmwxMxmNZbJXQcrM44enpqNVZ7vtdQe+gNAwYT1vkubt4H45Z8uZK9ozOLlQNL+cfvGnD6I6QCxkmRL8Tlv8C3iIQOgKxmjjER0K7BIE52ac5NOG2rbcireqe81a4Aw==);whiteSpace=wrap;html=1;" parent="XaXqWwQPE1AyAoHPwtIc-35" vertex="1">
          <mxGeometry x="61.5065371815175" y="103.56714285714284" width="15.74620897406893" height="17.142857142857142" as="geometry" />
        </mxCell>
        <mxCell id="XaXqWwQPE1AyAoHPwtIc-14" value="" style="shape=stencil(tZRNDoIwEIVP063pj7g3qPcoOEojtKRU1NtbqBgr1CjChmTey3y8ZqZFLK4yXgKiOENsgyil2H5sefFLXpWQGqfVXAue5OCcymh1govYmwdByAy0MI3LtgivUcPAiMWpktJChJKV57z4FsaFtL346mCP39+8qrT8AgxopxKnIrr7HruI5gGTmfL62C795HmnA/uJyVyDmwxMxmNZbJXQcrM44enpqNVZ7vtdQe+gNAwYT1vkubt4H45Z8uZK9ozOLlQNL+cfvGnD6I6QCxkmRL8Tlv8C3iIQOgKxmjjER0K7BIE52ac5NOG2rbcireqe81a4Aw==);whiteSpace=wrap;html=1;" parent="XaXqWwQPE1AyAoHPwtIc-35" vertex="1">
          <mxGeometry x="88.26205961668983" y="102.85714285714285" width="15.74620897406893" height="17.142857142857142" as="geometry" />
        </mxCell>
        <mxCell id="XaXqWwQPE1AyAoHPwtIc-15" value="" style="shape=stencil(tZRNDoIwEIVP063pj7g3qPcoOEojtKRU1NtbqBgr1CjChmTey3y8ZqZFLK4yXgKiOENsgyil2H5sefFLXpWQGqfVXAue5OCcymh1govYmwdByAy0MI3LtgivUcPAiMWpktJChJKV57z4FsaFtL346mCP39+8qrT8AgxopxKnIrr7HruI5gGTmfL62C795HmnA/uJyVyDmwxMxmNZbJXQcrM44enpqNVZ7vtdQe+gNAwYT1vkubt4H45Z8uZK9ozOLlQNL+cfvGnD6I6QCxkmRL8Tlv8C3iIQOgKxmjjER0K7BIE52ac5NOG2rbcireqe81a4Aw==);whiteSpace=wrap;html=1;" parent="XaXqWwQPE1AyAoHPwtIc-35" vertex="1">
          <mxGeometry x="118.50758205186214" y="102.85714285714285" width="15.74620897406893" height="17.142857142857142" as="geometry" />
        </mxCell>
        <mxCell id="XaXqWwQPE1AyAoHPwtIc-16" value="" style="pointerEvents=1;verticalLabelPosition=middle;shadow=0;dashed=0;align=left;html=1;verticalAlign=top;shape=mxgraph.electrical.resistors.resistor_1;labelPosition=center;spacingBottom=0;spacingLeft=25;direction=west;spacingTop=10;spacing=0;points=[[0,0.5,0,0,0],[0.5,0,0,0,-3],[0.5,1,0,0,2],[1,0.5,0,0,0]];fillColor=none;rotation=91;" parent="XaXqWwQPE1AyAoHPwtIc-35" vertex="1">
          <mxGeometry x="-17.63" y="40.53" width="51.9" height="17.14" as="geometry" />
        </mxCell>
        <mxCell id="XaXqWwQPE1AyAoHPwtIc-17" value="" style="pointerEvents=1;verticalLabelPosition=middle;shadow=0;dashed=0;align=left;html=1;verticalAlign=top;shape=mxgraph.electrical.resistors.resistor_1;labelPosition=center;spacingBottom=0;spacingLeft=25;direction=west;spacingTop=10;spacing=0;points=[[0,0.5,0,0,0],[0.5,0,0,0,-3],[0.5,1,0,0,2],[1,0.5,0,0,0]];fillColor=none;rotation=91;" parent="XaXqWwQPE1AyAoHPwtIc-35" vertex="1">
          <mxGeometry x="42.769999999999996" y="40.53" width="53.32" height="17.14" as="geometry" />
        </mxCell>
        <mxCell id="XaXqWwQPE1AyAoHPwtIc-18" value="" style="pointerEvents=1;verticalLabelPosition=middle;shadow=0;dashed=0;align=left;html=1;verticalAlign=top;shape=mxgraph.electrical.resistors.resistor_1;labelPosition=center;spacingBottom=0;spacingLeft=25;direction=west;spacingTop=10;spacing=0;points=[[0,0.5,0,0,0],[0.5,0,0,0,-3],[0.5,1,0,0,2],[1,0.5,0,0,0]];fillColor=none;rotation=91;" parent="XaXqWwQPE1AyAoHPwtIc-35" vertex="1">
          <mxGeometry x="70" y="40.3" width="52.36" height="17.14" as="geometry" />
        </mxCell>
        <mxCell id="XaXqWwQPE1AyAoHPwtIc-19" value="" style="pointerEvents=1;verticalLabelPosition=middle;shadow=0;dashed=0;align=left;html=1;verticalAlign=top;shape=mxgraph.electrical.resistors.resistor_1;labelPosition=center;spacingBottom=0;spacingLeft=25;direction=west;spacingTop=10;spacing=0;points=[[0,0.5,0,0,0],[0.5,0,0,0,-3],[0.5,1,0,0,2],[1,0.5,0,0,0]];fillColor=none;rotation=91;" parent="XaXqWwQPE1AyAoHPwtIc-35" vertex="1">
          <mxGeometry x="101.4" y="38.62" width="50" height="17.14" as="geometry" />
        </mxCell>
        <mxCell id="8v12p0gSR2IwAuQ5N-L2-43" value="Output" style="text;html=1;align=center;verticalAlign=middle;whiteSpace=wrap;rounded=0;" parent="XaXqWwQPE1AyAoHPwtIc-35" vertex="1">
          <mxGeometry x="31.519999999999982" y="7" width="60" height="13" as="geometry" />
        </mxCell>
        <mxCell id="8v12p0gSR2IwAuQ5N-L2-46" value="" style="shape=stencil(pZXhboMgFIWfhr+Lgo3dz4Vt70Ht7SSlYIC129sXRZNSlVhIjAnnyMe9RwiIUNOyDhAuWkQ+EcZV4V5ueAuHzHTQWK9dmebsIMA7xmp1hhs/2pHAZQua294lX6j4cN/0D6GNktJBuJImcB58B2NcurnFn4eNy/+Po7d654XOLXEBC9obpVcR/t5MLrPIhDplrSFCD6w5/2j1K4+L9XSsD2tmTPZFXeGh0DCDKZLlXieE4HIdUSUgSIggmxCNUAYi/8XpsygGdSU/Qk9KQyTYExfCb8jIqi+ln9J2NPxtiLCIp/BTtsATYtsWiFaRkkWVnwWusrPAdYAod/mI/euNlO8hok6oAocInI+IZrF8Yidv9eAN02Ynd1D97TMIdw==);html=1;verticalAlign=top;align=left;spacingTop=25;spacing=0;spacingLeft=35;direction=east;fillColor=none;rotation=90;" parent="XaXqWwQPE1AyAoHPwtIc-35" vertex="1">
          <mxGeometry x="34.20101474634513" y="66.66142857142852" width="31.49241794813786" height="34.285714285714285" as="geometry" />
        </mxCell>
        <mxCell id="8v12p0gSR2IwAuQ5N-L2-47" value="" style="shape=stencil(tZRNDoIwEIVP063pj7g3qPcoOEojtKRU1NtbqBgr1CjChmTey3y8ZqZFLK4yXgKiOENsgyil2H5sefFLXpWQGqfVXAue5OCcymh1govYmwdByAy0MI3LtgivUcPAiMWpktJChJKV57z4FsaFtL346mCP39+8qrT8AgxopxKnIrr7HruI5gGTmfL62C795HmnA/uJyVyDmwxMxmNZbJXQcrM44enpqNVZ7vtdQe+gNAwYT1vkubt4H45Z8uZK9ozOLlQNL+cfvGnD6I6QCxkmRL8Tlv8C3iIQOgKxmjjER0K7BIE52ac5NOG2rbcireqe81a4Aw==);whiteSpace=wrap;html=1;" parent="XaXqWwQPE1AyAoHPwtIc-35" vertex="1">
          <mxGeometry x="34.20101474634513" y="100.94714285714285" width="15.74620897406893" height="17.142857142857142" as="geometry" />
        </mxCell>
        <mxCell id="8v12p0gSR2IwAuQ5N-L2-48" value="" style="pointerEvents=1;verticalLabelPosition=middle;shadow=0;dashed=0;align=left;html=1;verticalAlign=top;shape=mxgraph.electrical.resistors.resistor_1;labelPosition=center;spacingBottom=0;spacingLeft=25;direction=west;spacingTop=10;spacing=0;points=[[0,0.5,0,0,0],[0.5,0,0,0,-3],[0.5,1,0,0,2],[1,0.5,0,0,0]];fillColor=none;rotation=91;" parent="XaXqWwQPE1AyAoHPwtIc-35" vertex="1">
          <mxGeometry x="16.160000000000004" y="38.61999999999993" width="51.9" height="17.14" as="geometry" />
        </mxCell>
        <mxCell id="XaXqWwQPE1AyAoHPwtIc-54" value="DIP Switch" style="text;html=1;align=center;verticalAlign=middle;whiteSpace=wrap;rounded=0;" parent="1" vertex="1">
          <mxGeometry x="211.89000000000001" y="898" width="68.66" height="10" as="geometry" />
        </mxCell>
        <mxCell id="XaXqWwQPE1AyAoHPwtIc-58" value="I/O7 - I/O0" style="text;html=1;align=center;verticalAlign=middle;whiteSpace=wrap;rounded=0;" parent="1" vertex="1">
          <mxGeometry x="213" y="688" width="60" height="10" as="geometry" />
        </mxCell>
        <mxCell id="XaXqWwQPE1AyAoHPwtIc-107" value="A0-A7" style="text;html=1;align=center;verticalAlign=middle;whiteSpace=wrap;rounded=0;" parent="1" vertex="1">
          <mxGeometry x="219.08" y="295" width="47.67" height="10" as="geometry" />
        </mxCell>
        <mxCell id="XaXqWwQPE1AyAoHPwtIc-115" value="!WE" style="text;html=1;align=center;verticalAlign=middle;whiteSpace=wrap;rounded=0;" parent="1" vertex="1">
          <mxGeometry x="194.81" y="650" width="30" height="10" as="geometry" />
        </mxCell>
        <mxCell id="XaXqWwQPE1AyAoHPwtIc-238" value="" style="group;rotation=-180;" parent="1" vertex="1" connectable="0">
          <mxGeometry x="181.82999999999998" y="240" width="120.35" height="20" as="geometry" />
        </mxCell>
        <mxCell id="XaXqWwQPE1AyAoHPwtIc-230" value="" style="shape=stencil(pZXhboMgFIWfhr+Lgo3dz4Vt70Ht7SSlYIC129sXRZNSlVhIjAnnyMe9RwiIUNOyDhAuWkQ+EcZV4V5ueAuHzHTQWK9dmebsIMA7xmp1hhs/2pHAZQua294lX6j4cN/0D6GNktJBuJImcB58B2NcurnFn4eNy/+Po7d654XOLXEBC9obpVcR/t5MLrPIhDplrSFCD6w5/2j1K4+L9XSsD2tmTPZFXeGh0DCDKZLlXieE4HIdUSUgSIggmxCNUAYi/8XpsygGdSU/Qk9KQyTYExfCb8jIqi+ln9J2NPxtiLCIp/BTtsATYtsWiFaRkkWVnwWusrPAdYAod/mI/euNlO8hok6oAocInI+IZrF8Yidv9eAN02Ynd1D97TMIdw==);html=1;verticalAlign=top;align=left;spacingTop=25;spacing=0;spacingLeft=35;direction=east;fillColor=none;rotation=-90;" parent="XaXqWwQPE1AyAoHPwtIc-238" vertex="1">
          <mxGeometry x="73" width="20.000553955240417" height="19.99999999999999" as="geometry" />
        </mxCell>
        <mxCell id="XaXqWwQPE1AyAoHPwtIc-231" value="" style="shape=stencil(pZXhboMgFIWfhr+Lgo3dz4Vt70Ht7SSlYIC129sXRZNSlVhIjAnnyMe9RwiIUNOyDhAuWkQ+EcZV4V5ueAuHzHTQWK9dmebsIMA7xmp1hhs/2pHAZQua294lX6j4cN/0D6GNktJBuJImcB58B2NcurnFn4eNy/+Po7d654XOLXEBC9obpVcR/t5MLrPIhDplrSFCD6w5/2j1K4+L9XSsD2tmTPZFXeGh0DCDKZLlXieE4HIdUSUgSIggmxCNUAYi/8XpsygGdSU/Qk9KQyTYExfCb8jIqi+ln9J2NPxtiLCIp/BTtsATYtsWiFaRkkWVnwWusrPAdYAod/mI/euNlO8hok6oAocInI+IZrF8Yidv9eAN02Ynd1D97TMIdw==);html=1;verticalAlign=top;align=left;spacingTop=25;spacing=0;spacingLeft=35;direction=east;fillColor=none;rotation=-90;" parent="XaXqWwQPE1AyAoHPwtIc-238" vertex="1">
          <mxGeometry x="58" width="20.000553955240417" height="19.99999999999999" as="geometry" />
        </mxCell>
        <mxCell id="XaXqWwQPE1AyAoHPwtIc-232" value="" style="shape=stencil(pZXhboMgFIWfhr+Lgo3dz4Vt70Ht7SSlYIC129sXRZNSlVhIjAnnyMe9RwiIUNOyDhAuWkQ+EcZV4V5ueAuHzHTQWK9dmebsIMA7xmp1hhs/2pHAZQua294lX6j4cN/0D6GNktJBuJImcB58B2NcurnFn4eNy/+Po7d654XOLXEBC9obpVcR/t5MLrPIhDplrSFCD6w5/2j1K4+L9XSsD2tmTPZFXeGh0DCDKZLlXieE4HIdUSUgSIggmxCNUAYi/8XpsygGdSU/Qk9KQyTYExfCb8jIqi+ln9J2NPxtiLCIp/BTtsATYtsWiFaRkkWVnwWusrPAdYAod/mI/euNlO8hok6oAocInI+IZrF8Yidv9eAN02Ynd1D97TMIdw==);html=1;verticalAlign=top;align=left;spacingTop=25;spacing=0;spacingLeft=35;direction=east;fillColor=none;rotation=-90;" parent="XaXqWwQPE1AyAoHPwtIc-238" vertex="1">
          <mxGeometry x="43" width="20.000553955240417" height="19.99999999999999" as="geometry" />
        </mxCell>
        <mxCell id="XaXqWwQPE1AyAoHPwtIc-233" value="" style="shape=stencil(pZXhboMgFIWfhr+Lgo3dz4Vt70Ht7SSlYIC129sXRZNSlVhIjAnnyMe9RwiIUNOyDhAuWkQ+EcZV4V5ueAuHzHTQWK9dmebsIMA7xmp1hhs/2pHAZQua294lX6j4cN/0D6GNktJBuJImcB58B2NcurnFn4eNy/+Po7d654XOLXEBC9obpVcR/t5MLrPIhDplrSFCD6w5/2j1K4+L9XSsD2tmTPZFXeGh0DCDKZLlXieE4HIdUSUgSIggmxCNUAYi/8XpsygGdSU/Qk9KQyTYExfCb8jIqi+ln9J2NPxtiLCIp/BTtsATYtsWiFaRkkWVnwWusrPAdYAod/mI/euNlO8hok6oAocInI+IZrF8Yidv9eAN02Ynd1D97TMIdw==);html=1;verticalAlign=top;align=left;spacingTop=25;spacing=0;spacingLeft=35;direction=east;fillColor=none;rotation=-90;" parent="XaXqWwQPE1AyAoHPwtIc-238" vertex="1">
          <mxGeometry x="27" width="20.000553955240417" height="19.99999999999999" as="geometry" />
        </mxCell>
        <mxCell id="XaXqWwQPE1AyAoHPwtIc-234" value="" style="shape=stencil(pZXhboMgFIWfhr+Lgo3dz4Vt70Ht7SSlYIC129sXRZNSlVhIjAnnyMe9RwiIUNOyDhAuWkQ+EcZV4V5ueAuHzHTQWK9dmebsIMA7xmp1hhs/2pHAZQua294lX6j4cN/0D6GNktJBuJImcB58B2NcurnFn4eNy/+Po7d654XOLXEBC9obpVcR/t5MLrPIhDplrSFCD6w5/2j1K4+L9XSsD2tmTPZFXeGh0DCDKZLlXieE4HIdUSUgSIggmxCNUAYi/8XpsygGdSU/Qk9KQyTYExfCb8jIqi+ln9J2NPxtiLCIp/BTtsATYtsWiFaRkkWVnwWusrPAdYAod/mI/euNlO8hok6oAocInI+IZrF8Yidv9eAN02Ynd1D97TMIdw==);html=1;verticalAlign=top;align=left;spacingTop=25;spacing=0;spacingLeft=35;direction=east;fillColor=none;rotation=-90;" parent="XaXqWwQPE1AyAoHPwtIc-238" vertex="1">
          <mxGeometry x="14" width="20.000553955240417" height="19.99999999999999" as="geometry" />
        </mxCell>
        <mxCell id="XaXqWwQPE1AyAoHPwtIc-235" value="" style="shape=stencil(pZXhboMgFIWfhr+Lgo3dz4Vt70Ht7SSlYIC129sXRZNSlVhIjAnnyMe9RwiIUNOyDhAuWkQ+EcZV4V5ueAuHzHTQWK9dmebsIMA7xmp1hhs/2pHAZQua294lX6j4cN/0D6GNktJBuJImcB58B2NcurnFn4eNy/+Po7d654XOLXEBC9obpVcR/t5MLrPIhDplrSFCD6w5/2j1K4+L9XSsD2tmTPZFXeGh0DCDKZLlXieE4HIdUSUgSIggmxCNUAYi/8XpsygGdSU/Qk9KQyTYExfCb8jIqi+ln9J2NPxtiLCIp/BTtsATYtsWiFaRkkWVnwWusrPAdYAod/mI/euNlO8hok6oAocInI+IZrF8Yidv9eAN02Ynd1D97TMIdw==);html=1;verticalAlign=top;align=left;spacingTop=25;spacing=0;spacingLeft=35;direction=east;fillColor=none;rotation=-90;" parent="XaXqWwQPE1AyAoHPwtIc-238" vertex="1">
          <mxGeometry width="20.000553955240417" height="19.99999999999999" as="geometry" />
        </mxCell>
        <mxCell id="XaXqWwQPE1AyAoHPwtIc-236" value="" style="shape=stencil(pZXhboMgFIWfhr+Lgo3dz4Vt70Ht7SSlYIC129sXRZNSlVhIjAnnyMe9RwiIUNOyDhAuWkQ+EcZV4V5ueAuHzHTQWK9dmebsIMA7xmp1hhs/2pHAZQua294lX6j4cN/0D6GNktJBuJImcB58B2NcurnFn4eNy/+Po7d654XOLXEBC9obpVcR/t5MLrPIhDplrSFCD6w5/2j1K4+L9XSsD2tmTPZFXeGh0DCDKZLlXieE4HIdUSUgSIggmxCNUAYi/8XpsygGdSU/Qk9KQyTYExfCb8jIqi+ln9J2NPxtiLCIp/BTtsATYtsWiFaRkkWVnwWusrPAdYAod/mI/euNlO8hok6oAocInI+IZrF8Yidv9eAN02Ynd1D97TMIdw==);html=1;verticalAlign=top;align=left;spacingTop=25;spacing=0;spacingLeft=35;direction=east;fillColor=none;rotation=-90;" parent="XaXqWwQPE1AyAoHPwtIc-238" vertex="1">
          <mxGeometry x="87" width="20.000553955240417" height="19.99999999999999" as="geometry" />
        </mxCell>
        <mxCell id="XaXqWwQPE1AyAoHPwtIc-237" value="" style="shape=stencil(pZXhboMgFIWfhr+Lgo3dz4Vt70Ht7SSlYIC129sXRZNSlVhIjAnnyMe9RwiIUNOyDhAuWkQ+EcZV4V5ueAuHzHTQWK9dmebsIMA7xmp1hhs/2pHAZQua294lX6j4cN/0D6GNktJBuJImcB58B2NcurnFn4eNy/+Po7d654XOLXEBC9obpVcR/t5MLrPIhDplrSFCD6w5/2j1K4+L9XSsD2tmTPZFXeGh0DCDKZLlXieE4HIdUSUgSIggmxCNUAYi/8XpsygGdSU/Qk9KQyTYExfCb8jIqi+ln9J2NPxtiLCIp/BTtsATYtsWiFaRkkWVnwWusrPAdYAod/mI/euNlO8hok6oAocInI+IZrF8Yidv9eAN02Ynd1D97TMIdw==);html=1;verticalAlign=top;align=left;spacingTop=25;spacing=0;spacingLeft=35;direction=east;fillColor=none;rotation=-90;" parent="XaXqWwQPE1AyAoHPwtIc-238" vertex="1">
          <mxGeometry x="100" width="20.000553955240417" height="19.99999999999999" as="geometry" />
        </mxCell>
        <mxCell id="XaXqWwQPE1AyAoHPwtIc-239" value="" style="endArrow=none;html=1;rounded=0;entryX=0;entryY=0.75;entryDx=0;entryDy=0;exitX=0;exitY=0.75;exitDx=0;exitDy=0;" parent="XaXqWwQPE1AyAoHPwtIc-238" source="XaXqWwQPE1AyAoHPwtIc-235" target="XaXqWwQPE1AyAoHPwtIc-237" edge="1">
          <mxGeometry width="50" height="50" relative="1" as="geometry">
            <mxPoint x="-29.65" y="74" as="sourcePoint" />
            <mxPoint x="20.35" y="24" as="targetPoint" />
          </mxGeometry>
        </mxCell>
        <mxCell id="XaXqWwQPE1AyAoHPwtIc-241" value="" style="endArrow=none;html=1;rounded=0;entryX=1;entryY=0.75;entryDx=0;entryDy=0;exitX=1;exitY=0.75;exitDx=0;exitDy=0;" parent="XaXqWwQPE1AyAoHPwtIc-238" source="XaXqWwQPE1AyAoHPwtIc-235" target="XaXqWwQPE1AyAoHPwtIc-237" edge="1">
          <mxGeometry width="50" height="50" relative="1" as="geometry">
            <mxPoint x="70.35" y="50" as="sourcePoint" />
            <mxPoint x="120.35" as="targetPoint" />
          </mxGeometry>
        </mxCell>
        <mxCell id="XaXqWwQPE1AyAoHPwtIc-240" value="8" style="endArrow=none;html=1;rounded=0;exitX=0.447;exitY=0.001;exitDx=0;exitDy=0;exitPerimeter=0;" parent="1" source="XaXqWwQPE1AyAoHPwtIc-2" edge="1">
          <mxGeometry width="50" height="50" relative="1" as="geometry">
            <mxPoint x="241" y="290" as="sourcePoint" />
            <mxPoint x="241" y="260" as="targetPoint" />
          </mxGeometry>
        </mxCell>
        <mxCell id="XaXqWwQPE1AyAoHPwtIc-243" value="8" style="endArrow=none;html=1;rounded=0;entryX=0.313;entryY=1.002;entryDx=0;entryDy=0;entryPerimeter=0;" parent="1" target="XaXqWwQPE1AyAoHPwtIc-4" edge="1">
          <mxGeometry width="50" height="50" relative="1" as="geometry">
            <mxPoint x="241" y="240" as="sourcePoint" />
            <mxPoint x="402.18" y="232" as="targetPoint" />
          </mxGeometry>
        </mxCell>
        <mxCell id="XaXqWwQPE1AyAoHPwtIc-279" value="O0" style="endArrow=none;html=1;rounded=0;entryX=0.299;entryY=1.01;entryDx=0;entryDy=0;entryPerimeter=0;exitX=0.36;exitY=1.001;exitDx=0;exitDy=0;exitPerimeter=0;" parent="1" source="XaXqWwQPE1AyAoHPwtIc-2" target="XaXqWwQPE1AyAoHPwtIc-5" edge="1">
          <mxGeometry x="0.844" width="50" height="50" relative="1" as="geometry">
            <mxPoint x="212.18" y="762" as="sourcePoint" />
            <mxPoint x="401" y="158" as="targetPoint" />
            <Array as="points">
              <mxPoint x="231" y="760" />
              <mxPoint x="361" y="760" />
            </Array>
            <mxPoint as="offset" />
          </mxGeometry>
        </mxCell>
        <mxCell id="XaXqWwQPE1AyAoHPwtIc-280" value="O1" style="endArrow=none;html=1;rounded=0;entryX=0.224;entryY=1.003;entryDx=0;entryDy=0;entryPerimeter=0;exitX=0.27;exitY=1.001;exitDx=0;exitDy=0;exitPerimeter=0;" parent="1" source="XaXqWwQPE1AyAoHPwtIc-2" target="XaXqWwQPE1AyAoHPwtIc-5" edge="1">
          <mxGeometry x="0.8924" width="50" height="50" relative="1" as="geometry">
            <mxPoint x="221" y="750" as="sourcePoint" />
            <mxPoint x="452.18" y="752" as="targetPoint" />
            <Array as="points">
              <mxPoint x="221" y="750" />
              <mxPoint x="351" y="750" />
            </Array>
            <mxPoint as="offset" />
          </mxGeometry>
        </mxCell>
        <mxCell id="XaXqWwQPE1AyAoHPwtIc-281" value="O2" style="endArrow=none;html=1;rounded=0;entryX=0.144;entryY=1;entryDx=0;entryDy=0;entryPerimeter=0;exitX=0.176;exitY=0.999;exitDx=0;exitDy=0;exitPerimeter=0;" parent="1" source="XaXqWwQPE1AyAoHPwtIc-2" target="XaXqWwQPE1AyAoHPwtIc-5" edge="1">
          <mxGeometry x="0.9445" width="50" height="50" relative="1" as="geometry">
            <mxPoint x="211" y="740" as="sourcePoint" />
            <mxPoint x="452.18" y="362" as="targetPoint" />
            <Array as="points">
              <mxPoint x="211" y="740" />
              <mxPoint x="341" y="740" />
            </Array>
            <mxPoint as="offset" />
          </mxGeometry>
        </mxCell>
        <mxCell id="8v12p0gSR2IwAuQ5N-L2-8" value="Alu right" style="text;html=1;align=center;verticalAlign=middle;whiteSpace=wrap;rounded=0;" parent="1" vertex="1">
          <mxGeometry x="751" y="437" width="60" height="10" as="geometry" />
        </mxCell>
        <mxCell id="8v12p0gSR2IwAuQ5N-L2-9" value="Alu left" style="text;html=1;align=center;verticalAlign=middle;whiteSpace=wrap;rounded=0;" parent="1" vertex="1">
          <mxGeometry x="621" y="435" width="60" height="10" as="geometry" />
        </mxCell>
        <mxCell id="8v12p0gSR2IwAuQ5N-L2-12" value="" style="group" parent="1" vertex="1" connectable="0">
          <mxGeometry x="541" y="120" width="156.91" height="64.13999999999999" as="geometry" />
        </mxCell>
        <mxCell id="XaXqWwQPE1AyAoHPwtIc-6" value="Accumulator&lt;div&gt;&amp;nbsp;CY74FCT2574T&lt;br&gt;&lt;/div&gt;" style="rounded=0;whiteSpace=wrap;html=1;" parent="8v12p0gSR2IwAuQ5N-L2-12" vertex="1">
          <mxGeometry width="153.82" height="64.14" as="geometry" />
        </mxCell>
        <mxCell id="8v12p0gSR2IwAuQ5N-L2-1" value="D0-D4" style="text;html=1;align=center;verticalAlign=middle;whiteSpace=wrap;rounded=0;" parent="8v12p0gSR2IwAuQ5N-L2-12" vertex="1">
          <mxGeometry x="10" y="50" width="60" height="12.07" as="geometry" />
        </mxCell>
        <mxCell id="8v12p0gSR2IwAuQ5N-L2-2" value="CP" style="text;html=1;align=center;verticalAlign=middle;whiteSpace=wrap;rounded=0;" parent="8v12p0gSR2IwAuQ5N-L2-12" vertex="1">
          <mxGeometry x="2.1316282072803006e-14" y="8.069999999999993" width="20" height="7" as="geometry" />
        </mxCell>
        <mxCell id="8v12p0gSR2IwAuQ5N-L2-3" value="!OE" style="text;html=1;align=center;verticalAlign=middle;whiteSpace=wrap;rounded=0;" parent="8v12p0gSR2IwAuQ5N-L2-12" vertex="1">
          <mxGeometry x="133.82000000000005" y="8.069999999999993" width="20" height="15" as="geometry" />
        </mxCell>
        <mxCell id="8v12p0gSR2IwAuQ5N-L2-7" value="O0-O4" style="text;html=1;align=center;verticalAlign=middle;whiteSpace=wrap;rounded=0;" parent="8v12p0gSR2IwAuQ5N-L2-12" vertex="1">
          <mxGeometry x="79.73" y="50" width="56.91" height="12.07" as="geometry" />
        </mxCell>
        <mxCell id="8v12p0gSR2IwAuQ5N-L2-14" value="" style="endArrow=none;html=1;rounded=0;entryX=0.132;entryY=1;entryDx=0;entryDy=0;entryPerimeter=0;exitX=0.451;exitY=1.001;exitDx=0;exitDy=0;exitPerimeter=0;" parent="1" source="XaXqWwQPE1AyAoHPwtIc-2" target="XaXqWwQPE1AyAoHPwtIc-6" edge="1">
          <mxGeometry width="50" height="50" relative="1" as="geometry">
            <mxPoint x="231" y="770" as="sourcePoint" />
            <mxPoint x="561" y="240" as="targetPoint" />
            <Array as="points">
              <mxPoint x="241" y="770" />
              <mxPoint x="441" y="770" />
              <mxPoint x="441" y="240" />
              <mxPoint x="561" y="240" />
            </Array>
          </mxGeometry>
        </mxCell>
        <mxCell id="8v12p0gSR2IwAuQ5N-L2-15" value="" style="endArrow=none;html=1;rounded=0;entryX=0.194;entryY=1;entryDx=0;entryDy=0;entryPerimeter=0;exitX=0.544;exitY=1;exitDx=0;exitDy=0;exitPerimeter=0;" parent="1" source="XaXqWwQPE1AyAoHPwtIc-2" target="XaXqWwQPE1AyAoHPwtIc-6" edge="1">
          <mxGeometry width="50" height="50" relative="1" as="geometry">
            <mxPoint x="250.16" y="780" as="sourcePoint" />
            <mxPoint x="571.2777777777778" y="230" as="targetPoint" />
            <Array as="points">
              <mxPoint x="251" y="780" />
              <mxPoint x="451" y="780" />
              <mxPoint x="451" y="250" />
              <mxPoint x="571" y="250" />
            </Array>
          </mxGeometry>
        </mxCell>
        <mxCell id="8v12p0gSR2IwAuQ5N-L2-16" value="" style="endArrow=none;html=1;rounded=0;entryX=0.259;entryY=0.998;entryDx=0;entryDy=0;entryPerimeter=0;exitX=0.636;exitY=0.999;exitDx=0;exitDy=0;exitPerimeter=0;" parent="1" source="XaXqWwQPE1AyAoHPwtIc-2" target="XaXqWwQPE1AyAoHPwtIc-6" edge="1">
          <mxGeometry width="50" height="50" relative="1" as="geometry">
            <mxPoint x="283.4" y="790" as="sourcePoint" />
            <mxPoint x="581" y="196.66666666666666" as="targetPoint" />
            <Array as="points">
              <mxPoint x="261" y="790" />
              <mxPoint x="461" y="790" />
              <mxPoint x="461" y="260" />
              <mxPoint x="581" y="260" />
            </Array>
          </mxGeometry>
        </mxCell>
        <mxCell id="8v12p0gSR2IwAuQ5N-L2-17" value="" style="endArrow=none;html=1;rounded=0;entryX=0.318;entryY=0.993;entryDx=0;entryDy=0;entryPerimeter=0;exitX=0.727;exitY=0.999;exitDx=0;exitDy=0;exitPerimeter=0;" parent="1" source="XaXqWwQPE1AyAoHPwtIc-2" target="XaXqWwQPE1AyAoHPwtIc-6" edge="1">
          <mxGeometry width="50" height="50" relative="1" as="geometry">
            <mxPoint x="300.81" y="800" as="sourcePoint" />
            <mxPoint x="591" y="200" as="targetPoint" />
            <Array as="points">
              <mxPoint x="271" y="800" />
              <mxPoint x="471" y="800" />
              <mxPoint x="471" y="270" />
              <mxPoint x="591" y="270" />
            </Array>
          </mxGeometry>
        </mxCell>
        <mxCell id="8v12p0gSR2IwAuQ5N-L2-18" value="" style="endArrow=none;html=1;rounded=0;entryX=0.387;entryY=1.002;entryDx=0;entryDy=0;entryPerimeter=0;exitX=0.812;exitY=1;exitDx=0;exitDy=0;exitPerimeter=0;" parent="1" source="XaXqWwQPE1AyAoHPwtIc-2" target="XaXqWwQPE1AyAoHPwtIc-6" edge="1">
          <mxGeometry width="50" height="50" relative="1" as="geometry">
            <mxPoint x="323.17" y="810" as="sourcePoint" />
            <mxPoint x="601" y="200" as="targetPoint" />
            <Array as="points">
              <mxPoint x="281" y="810" />
              <mxPoint x="481" y="810" />
              <mxPoint x="481" y="280" />
              <mxPoint x="601" y="280" />
            </Array>
          </mxGeometry>
        </mxCell>
        <mxCell id="8v12p0gSR2IwAuQ5N-L2-19" value="Load" style="endArrow=none;html=1;rounded=0;entryX=0;entryY=0.276;entryDx=0;entryDy=0;exitX=1;exitY=0.25;exitDx=0;exitDy=0;entryPerimeter=0;" parent="1" source="XaXqWwQPE1AyAoHPwtIc-5" target="8v12p0gSR2IwAuQ5N-L2-2" edge="1">
          <mxGeometry width="50" height="50" relative="1" as="geometry">
            <mxPoint x="461" y="140" as="sourcePoint" />
            <mxPoint x="511" y="90" as="targetPoint" />
          </mxGeometry>
        </mxCell>
        <mxCell id="8v12p0gSR2IwAuQ5N-L2-21" value="" style="endArrow=none;html=1;rounded=0;exitX=0.142;exitY=-0.003;exitDx=0;exitDy=0;exitPerimeter=0;entryX=0.582;entryY=0.998;entryDx=0;entryDy=0;entryPerimeter=0;" parent="1" source="XaXqWwQPE1AyAoHPwtIc-3" target="XaXqWwQPE1AyAoHPwtIc-6" edge="1">
          <mxGeometry width="50" height="50" relative="1" as="geometry">
            <mxPoint x="591" y="380" as="sourcePoint" />
            <mxPoint x="631" y="190" as="targetPoint" />
          </mxGeometry>
        </mxCell>
        <mxCell id="8v12p0gSR2IwAuQ5N-L2-22" value="" style="endArrow=none;html=1;rounded=0;exitX=0.183;exitY=0.004;exitDx=0;exitDy=0;exitPerimeter=0;entryX=0.649;entryY=1.007;entryDx=0;entryDy=0;entryPerimeter=0;" parent="1" source="XaXqWwQPE1AyAoHPwtIc-3" target="XaXqWwQPE1AyAoHPwtIc-6" edge="1">
          <mxGeometry width="50" height="50" relative="1" as="geometry">
            <mxPoint x="644.18" y="432" as="sourcePoint" />
            <mxPoint x="642.18" y="180" as="targetPoint" />
          </mxGeometry>
        </mxCell>
        <mxCell id="8v12p0gSR2IwAuQ5N-L2-23" value="" style="endArrow=none;html=1;rounded=0;exitX=0.227;exitY=0;exitDx=0;exitDy=0;exitPerimeter=0;entryX=0.715;entryY=1.002;entryDx=0;entryDy=0;entryPerimeter=0;" parent="1" source="XaXqWwQPE1AyAoHPwtIc-3" target="XaXqWwQPE1AyAoHPwtIc-6" edge="1">
          <mxGeometry width="50" height="50" relative="1" as="geometry">
            <mxPoint x="654.18" y="435" as="sourcePoint" />
            <mxPoint x="652.18" y="183" as="targetPoint" />
          </mxGeometry>
        </mxCell>
        <mxCell id="8v12p0gSR2IwAuQ5N-L2-24" value="" style="endArrow=none;html=1;rounded=0;exitX=0.269;exitY=-0.004;exitDx=0;exitDy=0;exitPerimeter=0;entryX=0.581;entryY=0.986;entryDx=0;entryDy=0;entryPerimeter=0;" parent="1" source="XaXqWwQPE1AyAoHPwtIc-3" edge="1">
          <mxGeometry width="50" height="50" relative="1" as="geometry">
            <mxPoint x="664.18" y="436.14" as="sourcePoint" />
            <mxPoint x="662.18" y="184.14" as="targetPoint" />
          </mxGeometry>
        </mxCell>
        <mxCell id="8v12p0gSR2IwAuQ5N-L2-25" value="" style="endArrow=none;html=1;rounded=0;exitX=0.308;exitY=0.003;exitDx=0;exitDy=0;exitPerimeter=0;entryX=0.904;entryY=1.161;entryDx=0;entryDy=0;entryPerimeter=0;" parent="1" source="XaXqWwQPE1AyAoHPwtIc-3" target="8v12p0gSR2IwAuQ5N-L2-7" edge="1">
          <mxGeometry width="50" height="50" relative="1" as="geometry">
            <mxPoint x="674.18" y="437" as="sourcePoint" />
            <mxPoint x="672.18" y="185" as="targetPoint" />
          </mxGeometry>
        </mxCell>
        <mxCell id="8v12p0gSR2IwAuQ5N-L2-27" value="" style="endArrow=none;html=1;rounded=0;entryX=0.849;entryY=0.001;entryDx=0;entryDy=0;entryPerimeter=0;" parent="1" target="XaXqWwQPE1AyAoHPwtIc-3" edge="1">
          <mxGeometry width="50" height="50" relative="1" as="geometry">
            <mxPoint x="481" y="400" as="sourcePoint" />
            <mxPoint x="801" y="430" as="targetPoint" />
            <Array as="points">
              <mxPoint x="801" y="400" />
            </Array>
          </mxGeometry>
        </mxCell>
        <mxCell id="8v12p0gSR2IwAuQ5N-L2-28" value="" style="endArrow=none;html=1;rounded=0;entryX=0.849;entryY=0.001;entryDx=0;entryDy=0;entryPerimeter=0;" parent="1" edge="1">
          <mxGeometry width="50" height="50" relative="1" as="geometry">
            <mxPoint x="471" y="390" as="sourcePoint" />
            <mxPoint x="792.18" y="432" as="targetPoint" />
            <Array as="points">
              <mxPoint x="792.18" y="390" />
            </Array>
          </mxGeometry>
        </mxCell>
        <mxCell id="8v12p0gSR2IwAuQ5N-L2-29" value="" style="endArrow=none;html=1;rounded=0;entryX=0.849;entryY=0.001;entryDx=0;entryDy=0;entryPerimeter=0;" parent="1" edge="1">
          <mxGeometry width="50" height="50" relative="1" as="geometry">
            <mxPoint x="461" y="380" as="sourcePoint" />
            <mxPoint x="779.6800000000001" y="432" as="targetPoint" />
            <Array as="points">
              <mxPoint x="779.23" y="380" />
            </Array>
          </mxGeometry>
        </mxCell>
        <mxCell id="8v12p0gSR2IwAuQ5N-L2-30" value="" style="endArrow=none;html=1;rounded=0;entryX=0.849;entryY=0.001;entryDx=0;entryDy=0;entryPerimeter=0;" parent="1" edge="1">
          <mxGeometry width="50" height="50" relative="1" as="geometry">
            <mxPoint x="451" y="370" as="sourcePoint" />
            <mxPoint x="771.45" y="432" as="targetPoint" />
            <Array as="points">
              <mxPoint x="771" y="370" />
            </Array>
          </mxGeometry>
        </mxCell>
        <mxCell id="8v12p0gSR2IwAuQ5N-L2-31" value="" style="endArrow=none;html=1;rounded=0;entryX=0.849;entryY=0.001;entryDx=0;entryDy=0;entryPerimeter=0;" parent="1" edge="1">
          <mxGeometry width="50" height="50" relative="1" as="geometry">
            <mxPoint x="441" y="360" as="sourcePoint" />
            <mxPoint x="761.45" y="432" as="targetPoint" />
            <Array as="points">
              <mxPoint x="761" y="360" />
            </Array>
          </mxGeometry>
        </mxCell>
        <mxCell id="8v12p0gSR2IwAuQ5N-L2-36" value="" style="endArrow=none;html=1;rounded=0;exitX=0.75;exitY=1;exitDx=0;exitDy=0;entryX=0.077;entryY=0.378;entryDx=0;entryDy=0;entryPerimeter=0;" parent="1" target="XaXqWwQPE1AyAoHPwtIc-3" edge="1">
          <mxGeometry width="50" height="50" relative="1" as="geometry">
            <mxPoint x="401.9325000000002" y="190" as="sourcePoint" />
            <mxPoint x="596.94" y="472.26" as="targetPoint" />
            <Array as="points">
              <mxPoint x="401.56" y="470" />
            </Array>
          </mxGeometry>
        </mxCell>
        <mxCell id="8v12p0gSR2IwAuQ5N-L2-37" value="Add, Nand, Xor, Not, Lsh, Rsh" style="edgeLabel;html=1;align=center;verticalAlign=middle;resizable=0;points=[];" parent="8v12p0gSR2IwAuQ5N-L2-36" vertex="1" connectable="0">
          <mxGeometry x="0.7232" relative="1" as="geometry">
            <mxPoint x="-26" as="offset" />
          </mxGeometry>
        </mxCell>
        <mxCell id="8v12p0gSR2IwAuQ5N-L2-42" value="Immediate" style="text;html=1;align=center;verticalAlign=middle;whiteSpace=wrap;rounded=0;" parent="1" vertex="1">
          <mxGeometry x="423.5" y="810.45" width="60" height="12" as="geometry" />
        </mxCell>
        <mxCell id="8v12p0gSR2IwAuQ5N-L2-44" value="Clk" style="text;html=1;align=center;verticalAlign=middle;whiteSpace=wrap;rounded=0;" parent="1" vertex="1">
          <mxGeometry x="325.68" y="-6" width="24" height="10" as="geometry" />
        </mxCell>
        <mxCell id="tOiyktiXb2ID_XWYhX2H-1" value="do0" style="text;html=1;align=center;verticalAlign=middle;whiteSpace=wrap;rounded=0;" parent="1" vertex="1">
          <mxGeometry x="427" y="126" width="26.5" height="10" as="geometry" />
        </mxCell>
        <mxCell id="tOiyktiXb2ID_XWYhX2H-2" value="do7" style="text;html=1;align=center;verticalAlign=middle;whiteSpace=wrap;rounded=0;" parent="1" vertex="1">
          <mxGeometry x="323.18" y="126" width="26.5" height="10" as="geometry" />
        </mxCell>
        <mxCell id="tOiyktiXb2ID_XWYhX2H-3" value="do1-do6" style="text;html=1;align=center;verticalAlign=middle;whiteSpace=wrap;rounded=0;" parent="1" vertex="1">
          <mxGeometry x="380.25" y="178" width="50" height="10" as="geometry" />
        </mxCell>
        <mxCell id="tOiyktiXb2ID_XWYhX2H-4" value="di2-di0" style="text;html=1;align=center;verticalAlign=middle;whiteSpace=wrap;rounded=0;" parent="1" vertex="1">
          <mxGeometry x="331" y="178" width="40" height="10" as="geometry" />
        </mxCell>
        <mxCell id="tOiyktiXb2ID_XWYhX2H-10" value="s1 - s0" style="text;html=1;align=center;verticalAlign=middle;whiteSpace=wrap;rounded=0;" parent="1" vertex="1">
          <mxGeometry x="191.87" y="-41.5" width="48.34" height="13" as="geometry" />
        </mxCell>
        <mxCell id="ocJFT1lrMeXOSPBqILMc-8" value="" style="pointerEvents=1;verticalLabelPosition=bottom;shadow=0;dashed=0;align=center;html=1;verticalAlign=top;shape=mxgraph.electrical.signal_sources.source;aspect=fixed;points=[[0.5,0,0],[1,0.5,0],[0.5,1,0],[0,0.5,0]];elSignalType=stepOn;strokeColor=default;fontSize=38;fillColor=none;direction=east;" parent="1" vertex="1">
          <mxGeometry x="553.2899999999998" y="-253" width="35" height="35" as="geometry" />
        </mxCell>
        <mxCell id="gPwVoAXUcxk1GGr7bhU0-28" style="edgeStyle=orthogonalEdgeStyle;rounded=0;orthogonalLoop=1;jettySize=auto;html=1;exitX=-0.003;exitY=0.553;exitDx=0;exitDy=0;endArrow=none;endFill=0;entryX=1;entryY=0.5;entryDx=0;entryDy=0;exitPerimeter=0;" parent="1" source="gPwVoAXUcxk1GGr7bhU0-22" target="gPwVoAXUcxk1GGr7bhU0-70" edge="1">
          <mxGeometry relative="1" as="geometry">
            <mxPoint x="12.499691023451874" y="-18.44525547445255" as="targetPoint" />
            <Array as="points" />
          </mxGeometry>
        </mxCell>
        <mxCell id="gPwVoAXUcxk1GGr7bhU0-39" value="Cnt_down" style="edgeLabel;html=1;align=center;verticalAlign=middle;resizable=0;points=[];" parent="gPwVoAXUcxk1GGr7bhU0-28" vertex="1" connectable="0">
          <mxGeometry x="0.6956" relative="1" as="geometry">
            <mxPoint x="-7" y="-20" as="offset" />
          </mxGeometry>
        </mxCell>
        <mxCell id="gPwVoAXUcxk1GGr7bhU0-26" style="edgeStyle=orthogonalEdgeStyle;rounded=0;orthogonalLoop=1;jettySize=auto;html=1;exitX=0;exitY=0.25;exitDx=0;exitDy=0;endArrow=none;endFill=0;entryX=0.5;entryY=0;entryDx=0;entryDy=0;entryPerimeter=0;" parent="1" source="gPwVoAXUcxk1GGr7bhU0-22" target="gPwVoAXUcxk1GGr7bhU0-37" edge="1">
          <mxGeometry relative="1" as="geometry">
            <mxPoint x="81" y="-70" as="targetPoint" />
            <Array as="points">
              <mxPoint x="90" y="-41" />
              <mxPoint x="90" y="-60" />
              <mxPoint x="-30" y="-60" />
              <mxPoint x="-30" y="-89" />
            </Array>
          </mxGeometry>
        </mxCell>
        <mxCell id="gPwVoAXUcxk1GGr7bhU0-76" value="Load" style="edgeLabel;html=1;align=center;verticalAlign=middle;resizable=0;points=[];" parent="gPwVoAXUcxk1GGr7bhU0-26" vertex="1" connectable="0">
          <mxGeometry x="0.4056" y="1" relative="1" as="geometry">
            <mxPoint x="-29" y="-21" as="offset" />
          </mxGeometry>
        </mxCell>
        <mxCell id="gPwVoAXUcxk1GGr7bhU0-32" style="edgeStyle=orthogonalEdgeStyle;rounded=0;orthogonalLoop=1;jettySize=auto;html=1;exitX=0;exitY=1;exitDx=0;exitDy=0;endArrow=none;endFill=0;entryX=0.003;entryY=0.189;entryDx=0;entryDy=0;entryPerimeter=0;" parent="1" source="gPwVoAXUcxk1GGr7bhU0-22" target="XaXqWwQPE1AyAoHPwtIc-5" edge="1">
          <mxGeometry relative="1" as="geometry">
            <mxPoint x="281" y="80" as="targetPoint" />
            <Array as="points">
              <mxPoint x="81" y="-6" />
              <mxPoint x="81" y="125" />
            </Array>
          </mxGeometry>
        </mxCell>
        <mxCell id="gPwVoAXUcxk1GGr7bhU0-36" value="&lt;div&gt;Reset&lt;/div&gt;" style="edgeLabel;html=1;align=center;verticalAlign=middle;resizable=0;points=[];" parent="gPwVoAXUcxk1GGr7bhU0-32" vertex="1" connectable="0">
          <mxGeometry x="-0.8036" relative="1" as="geometry">
            <mxPoint x="14" y="9" as="offset" />
          </mxGeometry>
        </mxCell>
        <mxCell id="ocJFT1lrMeXOSPBqILMc-44" value="Halt" style="edgeLabel;html=1;align=center;verticalAlign=middle;resizable=0;points=[];" parent="gPwVoAXUcxk1GGr7bhU0-32" connectable="0" vertex="1">
          <mxGeometry x="0.1722" y="1" relative="1" as="geometry">
            <mxPoint as="offset" />
          </mxGeometry>
        </mxCell>
        <mxCell id="gPwVoAXUcxk1GGr7bhU0-22" value="COD&lt;br&gt;4:2" style="rounded=0;whiteSpace=wrap;html=1;" parent="1" vertex="1">
          <mxGeometry x="118.98" y="-57.5" width="39.32" height="67.5" as="geometry" />
        </mxCell>
        <mxCell id="gPwVoAXUcxk1GGr7bhU0-23" style="edgeStyle=orthogonalEdgeStyle;rounded=0;orthogonalLoop=1;jettySize=auto;html=1;entryX=0.001;entryY=0.297;entryDx=0;entryDy=0;entryPerimeter=0;endArrow=none;endFill=0;" parent="1" source="gPwVoAXUcxk1GGr7bhU0-22" target="XaXqWwQPE1AyAoHPwtIc-4" edge="1">
          <mxGeometry relative="1" as="geometry" />
        </mxCell>
        <mxCell id="gPwVoAXUcxk1GGr7bhU0-25" value="2" style="edgeLabel;html=1;align=center;verticalAlign=middle;resizable=0;points=[];" parent="gPwVoAXUcxk1GGr7bhU0-23" vertex="1" connectable="0">
          <mxGeometry x="0.2393" relative="1" as="geometry">
            <mxPoint x="-3" y="-10" as="offset" />
          </mxGeometry>
        </mxCell>
        <mxCell id="gPwVoAXUcxk1GGr7bhU0-24" value="" style="endArrow=none;html=1;rounded=0;" parent="1" edge="1">
          <mxGeometry width="50" height="50" relative="1" as="geometry">
            <mxPoint x="170.83" y="-18.75" as="sourcePoint" />
            <mxPoint x="180.83" y="-28.75" as="targetPoint" />
          </mxGeometry>
        </mxCell>
        <mxCell id="gPwVoAXUcxk1GGr7bhU0-37" value="" style="pointerEvents=1;verticalLabelPosition=bottom;shadow=0;dashed=0;align=center;html=1;verticalAlign=top;shape=mxgraph.electrical.signal_sources.signal_ground;direction=west;" parent="1" vertex="1">
          <mxGeometry x="-45" y="-109.5" width="30" height="20" as="geometry" />
        </mxCell>
        <mxCell id="gPwVoAXUcxk1GGr7bhU0-43" value="5V" style="verticalLabelPosition=middle;verticalAlign=top;shape=mxgraph.electrical.signal_sources.vdd;shadow=0;dashed=0;align=center;strokeWidth=1;fontSize=12;html=1;flipV=1;direction=east;labelPosition=center;spacingBottom=0;spacing=0;spacingTop=-35;fillColor=none;" parent="1" vertex="1">
          <mxGeometry x="-79.99999999999999" y="-68" width="20" height="10" as="geometry" />
        </mxCell>
        <mxCell id="gPwVoAXUcxk1GGr7bhU0-54" value="" style="edgeStyle=orthogonalEdgeStyle;rounded=0;orthogonalLoop=1;jettySize=auto;html=1;exitX=0;exitY=0.5;exitDx=0;exitDy=0;endArrow=none;endFill=0;" parent="1" source="gPwVoAXUcxk1GGr7bhU0-22" target="gPwVoAXUcxk1GGr7bhU0-53" edge="1">
          <mxGeometry relative="1" as="geometry">
            <mxPoint x="71" y="-31.741935483870975" as="targetPoint" />
            <mxPoint x="119" y="-32" as="sourcePoint" />
            <Array as="points">
              <mxPoint x="51" y="-32" />
              <mxPoint x="51" y="-32" />
            </Array>
          </mxGeometry>
        </mxCell>
        <mxCell id="gPwVoAXUcxk1GGr7bhU0-53" value="" style="ellipse;whiteSpace=wrap;html=1;aspect=fixed;" parent="1" vertex="1">
          <mxGeometry x="-43.52" y="-32.52" width="3.52" height="3.52" as="geometry" />
        </mxCell>
        <mxCell id="gPwVoAXUcxk1GGr7bhU0-70" value="" style="shape=stencil(vVTRbsIgFP0aXhcKq/pquu0/sF5XIgIBptvfS3upaa1sumZLmibnnHI43Hsp4ZVvhAXCaEP4C2HsmcZXhCeEqwSFt1AH5I7CSbFRgIoPzuzhJLchOUjdgJOhVfkroev4TfvwqjZaRxNptB8pAz2aCanjWvqJZmn7r4SeSsQ27nCAAA75AlnC3u42LuYY8yoyuePwaiPq/bszH3o7XZXVdsbBDeEiS6Ww1N8c1Iq2CROhlw/mCIPSjmvbl/q2d2+hpB5YFMtfWIxTMD47RXk1JI+HWMwPsaIPWHSTkGlWvJE/tfmuWQClpPX5ZvUwXfQFomaEct5/lLD8h4Rd6Sd3rWPxT9gRZw==);whiteSpace=wrap;html=1;rotation=-90;direction=south;" parent="1" vertex="1">
          <mxGeometry x="-60" y="-39.500000000000014" width="20" height="40" as="geometry" />
        </mxCell>
        <mxCell id="ocJFT1lrMeXOSPBqILMc-43" value="Q0 - Q7" style="text;html=1;align=center;verticalAlign=middle;whiteSpace=wrap;rounded=0;" parent="1" vertex="1">
          <mxGeometry x="212.87" y="48" width="60.1" height="10" as="geometry" />
        </mxCell>
        <mxCell id="ocJFT1lrMeXOSPBqILMc-56" value="" style="endArrow=none;html=1;rounded=0;" parent="1" edge="1">
          <mxGeometry width="50" height="50" relative="1" as="geometry">
            <mxPoint x="211" y="820" as="sourcePoint" />
            <mxPoint x="211" y="740" as="targetPoint" />
          </mxGeometry>
        </mxCell>
        <mxCell id="ocJFT1lrMeXOSPBqILMc-57" value="" style="endArrow=none;html=1;rounded=0;" parent="1" edge="1">
          <mxGeometry width="50" height="50" relative="1" as="geometry">
            <mxPoint x="221" y="820" as="sourcePoint" />
            <mxPoint x="221" y="750" as="targetPoint" />
          </mxGeometry>
        </mxCell>
        <mxCell id="ocJFT1lrMeXOSPBqILMc-58" value="" style="endArrow=none;html=1;rounded=0;" parent="1" edge="1">
          <mxGeometry width="50" height="50" relative="1" as="geometry">
            <mxPoint x="231" y="820" as="sourcePoint" />
            <mxPoint x="231" y="760" as="targetPoint" />
          </mxGeometry>
        </mxCell>
        <mxCell id="ocJFT1lrMeXOSPBqILMc-59" value="" style="endArrow=none;html=1;rounded=0;" parent="1" edge="1">
          <mxGeometry width="50" height="50" relative="1" as="geometry">
            <mxPoint x="241" y="820" as="sourcePoint" />
            <mxPoint x="241" y="770" as="targetPoint" />
          </mxGeometry>
        </mxCell>
        <mxCell id="ocJFT1lrMeXOSPBqILMc-60" value="" style="endArrow=none;html=1;rounded=0;" parent="1" edge="1">
          <mxGeometry width="50" height="50" relative="1" as="geometry">
            <mxPoint x="251" y="820" as="sourcePoint" />
            <mxPoint x="251" y="780" as="targetPoint" />
          </mxGeometry>
        </mxCell>
        <mxCell id="ocJFT1lrMeXOSPBqILMc-61" value="" style="endArrow=none;html=1;rounded=0;" parent="1" edge="1">
          <mxGeometry width="50" height="50" relative="1" as="geometry">
            <mxPoint x="261" y="820" as="sourcePoint" />
            <mxPoint x="261" y="790" as="targetPoint" />
          </mxGeometry>
        </mxCell>
        <mxCell id="ocJFT1lrMeXOSPBqILMc-62" value="" style="endArrow=none;html=1;rounded=0;" parent="1" edge="1">
          <mxGeometry width="50" height="50" relative="1" as="geometry">
            <mxPoint x="271" y="820" as="sourcePoint" />
            <mxPoint x="271" y="800" as="targetPoint" />
          </mxGeometry>
        </mxCell>
        <mxCell id="ocJFT1lrMeXOSPBqILMc-63" value="" style="endArrow=none;html=1;rounded=0;" parent="1" edge="1">
          <mxGeometry width="50" height="50" relative="1" as="geometry">
            <mxPoint x="281" y="820" as="sourcePoint" />
            <mxPoint x="281" y="810" as="targetPoint" />
          </mxGeometry>
        </mxCell>
        <mxCell id="ocJFT1lrMeXOSPBqILMc-65" value="" style="verticalLabelPosition=bottom;shadow=0;dashed=0;align=center;html=1;verticalAlign=top;shape=mxgraph.electrical.opto_electronics.led_1;pointerEvents=1;rotation=90;" parent="1" vertex="1">
          <mxGeometry x="203.72" y="822.45" width="14" height="9.1" as="geometry" />
        </mxCell>
        <mxCell id="ocJFT1lrMeXOSPBqILMc-66" value="" style="verticalLabelPosition=bottom;shadow=0;dashed=0;align=center;html=1;verticalAlign=top;shape=mxgraph.electrical.opto_electronics.led_1;pointerEvents=1;rotation=90;" parent="1" vertex="1">
          <mxGeometry x="214.72" y="822.45" width="14" height="9.1" as="geometry" />
        </mxCell>
        <mxCell id="gPwVoAXUcxk1GGr7bhU0-74" style="edgeStyle=orthogonalEdgeStyle;rounded=0;orthogonalLoop=1;jettySize=auto;html=1;exitX=0;exitY=0.5;exitDx=0;exitDy=0;entryX=0.5;entryY=0;entryDx=0;entryDy=0;entryPerimeter=0;endArrow=none;endFill=0;" parent="1" source="gPwVoAXUcxk1GGr7bhU0-70" target="gPwVoAXUcxk1GGr7bhU0-43" edge="1">
          <mxGeometry relative="1" as="geometry" />
        </mxCell>
        <mxCell id="ocJFT1lrMeXOSPBqILMc-67" value="" style="verticalLabelPosition=bottom;shadow=0;dashed=0;align=center;html=1;verticalAlign=top;shape=mxgraph.electrical.opto_electronics.led_1;pointerEvents=1;rotation=90;" parent="1" vertex="1">
          <mxGeometry x="224.72" y="822.45" width="14" height="9.1" as="geometry" />
        </mxCell>
        <mxCell id="ocJFT1lrMeXOSPBqILMc-68" value="" style="verticalLabelPosition=bottom;shadow=0;dashed=0;align=center;html=1;verticalAlign=top;shape=mxgraph.electrical.opto_electronics.led_1;pointerEvents=1;rotation=90;" parent="1" vertex="1">
          <mxGeometry x="234.72" y="822.45" width="14" height="9.1" as="geometry" />
        </mxCell>
        <mxCell id="ocJFT1lrMeXOSPBqILMc-69" value="" style="verticalLabelPosition=bottom;shadow=0;dashed=0;align=center;html=1;verticalAlign=top;shape=mxgraph.electrical.opto_electronics.led_1;pointerEvents=1;rotation=90;" parent="1" vertex="1">
          <mxGeometry x="244.72" y="822.45" width="14" height="9.1" as="geometry" />
        </mxCell>
        <mxCell id="ocJFT1lrMeXOSPBqILMc-70" value="" style="verticalLabelPosition=bottom;shadow=0;dashed=0;align=center;html=1;verticalAlign=top;shape=mxgraph.electrical.opto_electronics.led_1;pointerEvents=1;rotation=90;" parent="1" vertex="1">
          <mxGeometry x="254.72000000000003" y="822.45" width="14" height="9.1" as="geometry" />
        </mxCell>
        <mxCell id="ocJFT1lrMeXOSPBqILMc-71" value="" style="verticalLabelPosition=bottom;shadow=0;dashed=0;align=center;html=1;verticalAlign=top;shape=mxgraph.electrical.opto_electronics.led_1;pointerEvents=1;rotation=90;" parent="1" vertex="1">
          <mxGeometry x="264.72" y="822.45" width="14" height="9.1" as="geometry" />
        </mxCell>
        <mxCell id="ocJFT1lrMeXOSPBqILMc-72" value="" style="verticalLabelPosition=bottom;shadow=0;dashed=0;align=center;html=1;verticalAlign=top;shape=mxgraph.electrical.opto_electronics.led_1;pointerEvents=1;rotation=90;" parent="1" vertex="1">
          <mxGeometry x="274.72" y="822.45" width="14" height="9.1" as="geometry" />
        </mxCell>
        <mxCell id="ocJFT1lrMeXOSPBqILMc-118" value="" style="rounded=0;whiteSpace=wrap;html=1;" parent="1" vertex="1">
          <mxGeometry x="201" y="860" width="90" height="20" as="geometry" />
        </mxCell>
        <mxCell id="ocJFT1lrMeXOSPBqILMc-82" value="" style="group" parent="1" connectable="0" vertex="1">
          <mxGeometry x="205.57999999999998" y="839.5" width="10.460000000000036" height="59.5" as="geometry" />
        </mxCell>
        <mxCell id="ocJFT1lrMeXOSPBqILMc-73" value="" style="shape=stencil(vVTRbsIgFP0aXhcKq/pquu0/sF5XIgIBptvfS3upaa1sumZLmibnnHI43Hsp4ZVvhAXCaEP4C2HsmcZXhCeEqwSFt1AH5I7CSbFRgIoPzuzhJLchOUjdgJOhVfkroev4TfvwqjZaRxNptB8pAz2aCanjWvqJZmn7r4SeSsQ27nCAAA75AlnC3u42LuYY8yoyuePwaiPq/bszH3o7XZXVdsbBDeEiS6Ww1N8c1Iq2CROhlw/mCIPSjmvbl/q2d2+hpB5YFMtfWIxTMD47RXk1JI+HWMwPsaIPWHSTkGlWvJE/tfmuWQClpPX5ZvUwXfQFomaEct5/lLD8h4Rd6Sd3rWPxT9gRZw==);whiteSpace=wrap;html=1;rotation=90;" parent="ocJFT1lrMeXOSPBqILMc-82" vertex="1">
          <mxGeometry x="-5.629999999999967" y="24.5" width="21.72" height="10.46" as="geometry" />
        </mxCell>
        <mxCell id="ocJFT1lrMeXOSPBqILMc-79" value="" style="pointerEvents=1;verticalLabelPosition=middle;shadow=0;dashed=0;align=left;html=1;verticalAlign=top;shape=mxgraph.electrical.resistors.resistor_1;labelPosition=center;spacingBottom=0;spacingLeft=25;direction=west;spacingTop=10;spacing=0;points=[[0,0.5,0,0,0],[0.5,0,0,0,-3],[0.5,1,0,0,2],[1,0.5,0,0,0]];fillColor=none;rotation=-90;" parent="ocJFT1lrMeXOSPBqILMc-82" vertex="1">
          <mxGeometry x="-4.359999999999985" y="7.5" width="19" height="4" as="geometry" />
        </mxCell>
        <mxCell id="ocJFT1lrMeXOSPBqILMc-80" value="" style="shape=stencil(tZRNDoIwEIVP063pj7g3qPcoOEojtKRU1NtbqBgr1CjChmTey3y8ZqZFLK4yXgKiOENsgyil2H5sefFLXpWQGqfVXAue5OCcymh1govYmwdByAy0MI3LtgivUcPAiMWpktJChJKV57z4FsaFtL346mCP39+8qrT8AgxopxKnIrr7HruI5gGTmfL62C795HmnA/uJyVyDmwxMxmNZbJXQcrM44enpqNVZ7vtdQe+gNAwYT1vkubt4H45Z8uZK9ozOLlQNL+cfvGnD6I6QCxkmRL8Tlv8C3iIQOgKxmjjER0K7BIE52ac5NOG2rbcireqe81a4Aw==);whiteSpace=wrap;html=1;" parent="ocJFT1lrMeXOSPBqILMc-82" vertex="1">
          <mxGeometry x="0.7300000000000182" y="50.5" width="9" height="9" as="geometry" />
        </mxCell>
        <mxCell id="ocJFT1lrMeXOSPBqILMc-81" value="" style="endArrow=none;html=1;rounded=0;exitX=0.5;exitY=0;exitDx=0;exitDy=0;entryX=1;entryY=0.5;entryDx=0;entryDy=0;" parent="ocJFT1lrMeXOSPBqILMc-82" source="ocJFT1lrMeXOSPBqILMc-80" target="ocJFT1lrMeXOSPBqILMc-73" edge="1">
          <mxGeometry width="50" height="50" relative="1" as="geometry">
            <mxPoint x="35.420000000000016" y="60.5" as="sourcePoint" />
            <mxPoint x="85.42000000000002" y="10.5" as="targetPoint" />
          </mxGeometry>
        </mxCell>
        <mxCell id="ocJFT1lrMeXOSPBqILMc-83" value="" style="group" parent="1" connectable="0" vertex="1">
          <mxGeometry x="215.57999999999998" y="839.5" width="10.460000000000036" height="59.5" as="geometry" />
        </mxCell>
        <mxCell id="ocJFT1lrMeXOSPBqILMc-84" value="" style="shape=stencil(vVTRbsIgFP0aXhcKq/pquu0/sF5XIgIBptvfS3upaa1sumZLmibnnHI43Hsp4ZVvhAXCaEP4C2HsmcZXhCeEqwSFt1AH5I7CSbFRgIoPzuzhJLchOUjdgJOhVfkroev4TfvwqjZaRxNptB8pAz2aCanjWvqJZmn7r4SeSsQ27nCAAA75AlnC3u42LuYY8yoyuePwaiPq/bszH3o7XZXVdsbBDeEiS6Ww1N8c1Iq2CROhlw/mCIPSjmvbl/q2d2+hpB5YFMtfWIxTMD47RXk1JI+HWMwPsaIPWHSTkGlWvJE/tfmuWQClpPX5ZvUwXfQFomaEct5/lLD8h4Rd6Sd3rWPxT9gRZw==);whiteSpace=wrap;html=1;rotation=90;" parent="ocJFT1lrMeXOSPBqILMc-83" vertex="1">
          <mxGeometry x="-5.629999999999967" y="24.5" width="21.72" height="10.46" as="geometry" />
        </mxCell>
        <mxCell id="ocJFT1lrMeXOSPBqILMc-85" value="" style="pointerEvents=1;verticalLabelPosition=middle;shadow=0;dashed=0;align=left;html=1;verticalAlign=top;shape=mxgraph.electrical.resistors.resistor_1;labelPosition=center;spacingBottom=0;spacingLeft=25;direction=west;spacingTop=10;spacing=0;points=[[0,0.5,0,0,0],[0.5,0,0,0,-3],[0.5,1,0,0,2],[1,0.5,0,0,0]];fillColor=none;rotation=-90;" parent="ocJFT1lrMeXOSPBqILMc-83" vertex="1">
          <mxGeometry x="-4.359999999999985" y="7.5" width="19" height="4" as="geometry" />
        </mxCell>
        <mxCell id="ocJFT1lrMeXOSPBqILMc-86" value="" style="shape=stencil(tZRNDoIwEIVP063pj7g3qPcoOEojtKRU1NtbqBgr1CjChmTey3y8ZqZFLK4yXgKiOENsgyil2H5sefFLXpWQGqfVXAue5OCcymh1govYmwdByAy0MI3LtgivUcPAiMWpktJChJKV57z4FsaFtL346mCP39+8qrT8AgxopxKnIrr7HruI5gGTmfL62C795HmnA/uJyVyDmwxMxmNZbJXQcrM44enpqNVZ7vtdQe+gNAwYT1vkubt4H45Z8uZK9ozOLlQNL+cfvGnD6I6QCxkmRL8Tlv8C3iIQOgKxmjjER0K7BIE52ac5NOG2rbcireqe81a4Aw==);whiteSpace=wrap;html=1;" parent="ocJFT1lrMeXOSPBqILMc-83" vertex="1">
          <mxGeometry x="0.7300000000000182" y="50.5" width="9" height="9" as="geometry" />
        </mxCell>
        <mxCell id="ocJFT1lrMeXOSPBqILMc-87" value="" style="endArrow=none;html=1;rounded=0;exitX=0.5;exitY=0;exitDx=0;exitDy=0;entryX=1;entryY=0.5;entryDx=0;entryDy=0;" parent="ocJFT1lrMeXOSPBqILMc-83" source="ocJFT1lrMeXOSPBqILMc-86" target="ocJFT1lrMeXOSPBqILMc-84" edge="1">
          <mxGeometry width="50" height="50" relative="1" as="geometry">
            <mxPoint x="35.420000000000016" y="60.5" as="sourcePoint" />
            <mxPoint x="85.42000000000002" y="10.5" as="targetPoint" />
          </mxGeometry>
        </mxCell>
        <mxCell id="ocJFT1lrMeXOSPBqILMc-88" value="" style="group" parent="1" connectable="0" vertex="1">
          <mxGeometry x="225.57999999999998" y="839.5" width="10.460000000000036" height="58.5" as="geometry" />
        </mxCell>
        <mxCell id="ocJFT1lrMeXOSPBqILMc-89" value="" style="shape=stencil(vVTRbsIgFP0aXhcKq/pquu0/sF5XIgIBptvfS3upaa1sumZLmibnnHI43Hsp4ZVvhAXCaEP4C2HsmcZXhCeEqwSFt1AH5I7CSbFRgIoPzuzhJLchOUjdgJOhVfkroev4TfvwqjZaRxNptB8pAz2aCanjWvqJZmn7r4SeSsQ27nCAAA75AlnC3u42LuYY8yoyuePwaiPq/bszH3o7XZXVdsbBDeEiS6Ww1N8c1Iq2CROhlw/mCIPSjmvbl/q2d2+hpB5YFMtfWIxTMD47RXk1JI+HWMwPsaIPWHSTkGlWvJE/tfmuWQClpPX5ZvUwXfQFomaEct5/lLD8h4Rd6Sd3rWPxT9gRZw==);whiteSpace=wrap;html=1;rotation=90;" parent="ocJFT1lrMeXOSPBqILMc-88" vertex="1">
          <mxGeometry x="-5.629999999999967" y="24.5" width="21.72" height="10.46" as="geometry" />
        </mxCell>
        <mxCell id="ocJFT1lrMeXOSPBqILMc-90" value="" style="pointerEvents=1;verticalLabelPosition=middle;shadow=0;dashed=0;align=left;html=1;verticalAlign=top;shape=mxgraph.electrical.resistors.resistor_1;labelPosition=center;spacingBottom=0;spacingLeft=25;direction=west;spacingTop=10;spacing=0;points=[[0,0.5,0,0,0],[0.5,0,0,0,-3],[0.5,1,0,0,2],[1,0.5,0,0,0]];fillColor=none;rotation=-90;" parent="ocJFT1lrMeXOSPBqILMc-88" vertex="1">
          <mxGeometry x="-4.359999999999985" y="7.5" width="19" height="4" as="geometry" />
        </mxCell>
        <mxCell id="ocJFT1lrMeXOSPBqILMc-91" value="" style="shape=stencil(tZRNDoIwEIVP063pj7g3qPcoOEojtKRU1NtbqBgr1CjChmTey3y8ZqZFLK4yXgKiOENsgyil2H5sefFLXpWQGqfVXAue5OCcymh1govYmwdByAy0MI3LtgivUcPAiMWpktJChJKV57z4FsaFtL346mCP39+8qrT8AgxopxKnIrr7HruI5gGTmfL62C795HmnA/uJyVyDmwxMxmNZbJXQcrM44enpqNVZ7vtdQe+gNAwYT1vkubt4H45Z8uZK9ozOLlQNL+cfvGnD6I6QCxkmRL8Tlv8C3iIQOgKxmjjER0K7BIE52ac5NOG2rbcireqe81a4Aw==);whiteSpace=wrap;html=1;" parent="ocJFT1lrMeXOSPBqILMc-88" vertex="1">
          <mxGeometry x="0.7300000000000182" y="50.5" width="9" height="9" as="geometry" />
        </mxCell>
        <mxCell id="ocJFT1lrMeXOSPBqILMc-92" value="" style="endArrow=none;html=1;rounded=0;exitX=0.5;exitY=0;exitDx=0;exitDy=0;entryX=1;entryY=0.5;entryDx=0;entryDy=0;" parent="ocJFT1lrMeXOSPBqILMc-88" source="ocJFT1lrMeXOSPBqILMc-91" target="ocJFT1lrMeXOSPBqILMc-89" edge="1">
          <mxGeometry width="50" height="50" relative="1" as="geometry">
            <mxPoint x="35.420000000000016" y="60.5" as="sourcePoint" />
            <mxPoint x="85.42000000000002" y="10.5" as="targetPoint" />
          </mxGeometry>
        </mxCell>
        <mxCell id="ocJFT1lrMeXOSPBqILMc-93" value="" style="group" parent="1" connectable="0" vertex="1">
          <mxGeometry x="235.57999999999998" y="839.5" width="10.460000000000036" height="58.5" as="geometry" />
        </mxCell>
        <mxCell id="ocJFT1lrMeXOSPBqILMc-94" value="" style="shape=stencil(vVTRbsIgFP0aXhcKq/pquu0/sF5XIgIBptvfS3upaa1sumZLmibnnHI43Hsp4ZVvhAXCaEP4C2HsmcZXhCeEqwSFt1AH5I7CSbFRgIoPzuzhJLchOUjdgJOhVfkroev4TfvwqjZaRxNptB8pAz2aCanjWvqJZmn7r4SeSsQ27nCAAA75AlnC3u42LuYY8yoyuePwaiPq/bszH3o7XZXVdsbBDeEiS6Ww1N8c1Iq2CROhlw/mCIPSjmvbl/q2d2+hpB5YFMtfWIxTMD47RXk1JI+HWMwPsaIPWHSTkGlWvJE/tfmuWQClpPX5ZvUwXfQFomaEct5/lLD8h4Rd6Sd3rWPxT9gRZw==);whiteSpace=wrap;html=1;rotation=90;" parent="ocJFT1lrMeXOSPBqILMc-93" vertex="1">
          <mxGeometry x="-5.629999999999967" y="24.5" width="21.72" height="10.46" as="geometry" />
        </mxCell>
        <mxCell id="ocJFT1lrMeXOSPBqILMc-95" value="" style="pointerEvents=1;verticalLabelPosition=middle;shadow=0;dashed=0;align=left;html=1;verticalAlign=top;shape=mxgraph.electrical.resistors.resistor_1;labelPosition=center;spacingBottom=0;spacingLeft=25;direction=west;spacingTop=10;spacing=0;points=[[0,0.5,0,0,0],[0.5,0,0,0,-3],[0.5,1,0,0,2],[1,0.5,0,0,0]];fillColor=none;rotation=-90;" parent="ocJFT1lrMeXOSPBqILMc-93" vertex="1">
          <mxGeometry x="-4.359999999999985" y="7.5" width="19" height="4" as="geometry" />
        </mxCell>
        <mxCell id="ocJFT1lrMeXOSPBqILMc-96" value="" style="shape=stencil(tZRNDoIwEIVP063pj7g3qPcoOEojtKRU1NtbqBgr1CjChmTey3y8ZqZFLK4yXgKiOENsgyil2H5sefFLXpWQGqfVXAue5OCcymh1govYmwdByAy0MI3LtgivUcPAiMWpktJChJKV57z4FsaFtL346mCP39+8qrT8AgxopxKnIrr7HruI5gGTmfL62C795HmnA/uJyVyDmwxMxmNZbJXQcrM44enpqNVZ7vtdQe+gNAwYT1vkubt4H45Z8uZK9ozOLlQNL+cfvGnD6I6QCxkmRL8Tlv8C3iIQOgKxmjjER0K7BIE52ac5NOG2rbcireqe81a4Aw==);whiteSpace=wrap;html=1;" parent="ocJFT1lrMeXOSPBqILMc-93" vertex="1">
          <mxGeometry x="0.7300000000000182" y="50.5" width="9" height="9" as="geometry" />
        </mxCell>
        <mxCell id="ocJFT1lrMeXOSPBqILMc-97" value="" style="endArrow=none;html=1;rounded=0;exitX=0.5;exitY=0;exitDx=0;exitDy=0;entryX=1;entryY=0.5;entryDx=0;entryDy=0;" parent="ocJFT1lrMeXOSPBqILMc-93" source="ocJFT1lrMeXOSPBqILMc-96" target="ocJFT1lrMeXOSPBqILMc-94" edge="1">
          <mxGeometry width="50" height="50" relative="1" as="geometry">
            <mxPoint x="35.420000000000016" y="60.5" as="sourcePoint" />
            <mxPoint x="85.42000000000002" y="10.5" as="targetPoint" />
          </mxGeometry>
        </mxCell>
        <mxCell id="ocJFT1lrMeXOSPBqILMc-98" value="" style="group" parent="1" connectable="0" vertex="1">
          <mxGeometry x="245.57999999999998" y="839.5" width="10.460000000000036" height="58.5" as="geometry" />
        </mxCell>
        <mxCell id="ocJFT1lrMeXOSPBqILMc-99" value="" style="shape=stencil(vVTRbsIgFP0aXhcKq/pquu0/sF5XIgIBptvfS3upaa1sumZLmibnnHI43Hsp4ZVvhAXCaEP4C2HsmcZXhCeEqwSFt1AH5I7CSbFRgIoPzuzhJLchOUjdgJOhVfkroev4TfvwqjZaRxNptB8pAz2aCanjWvqJZmn7r4SeSsQ27nCAAA75AlnC3u42LuYY8yoyuePwaiPq/bszH3o7XZXVdsbBDeEiS6Ww1N8c1Iq2CROhlw/mCIPSjmvbl/q2d2+hpB5YFMtfWIxTMD47RXk1JI+HWMwPsaIPWHSTkGlWvJE/tfmuWQClpPX5ZvUwXfQFomaEct5/lLD8h4Rd6Sd3rWPxT9gRZw==);whiteSpace=wrap;html=1;rotation=90;" parent="ocJFT1lrMeXOSPBqILMc-98" vertex="1">
          <mxGeometry x="-5.629999999999967" y="24.5" width="21.72" height="10.46" as="geometry" />
        </mxCell>
        <mxCell id="ocJFT1lrMeXOSPBqILMc-100" value="" style="pointerEvents=1;verticalLabelPosition=middle;shadow=0;dashed=0;align=left;html=1;verticalAlign=top;shape=mxgraph.electrical.resistors.resistor_1;labelPosition=center;spacingBottom=0;spacingLeft=25;direction=west;spacingTop=10;spacing=0;points=[[0,0.5,0,0,0],[0.5,0,0,0,-3],[0.5,1,0,0,2],[1,0.5,0,0,0]];fillColor=none;rotation=-90;" parent="ocJFT1lrMeXOSPBqILMc-98" vertex="1">
          <mxGeometry x="-4.359999999999985" y="7.5" width="19" height="4" as="geometry" />
        </mxCell>
        <mxCell id="ocJFT1lrMeXOSPBqILMc-101" value="" style="shape=stencil(tZRNDoIwEIVP063pj7g3qPcoOEojtKRU1NtbqBgr1CjChmTey3y8ZqZFLK4yXgKiOENsgyil2H5sefFLXpWQGqfVXAue5OCcymh1govYmwdByAy0MI3LtgivUcPAiMWpktJChJKV57z4FsaFtL346mCP39+8qrT8AgxopxKnIrr7HruI5gGTmfL62C795HmnA/uJyVyDmwxMxmNZbJXQcrM44enpqNVZ7vtdQe+gNAwYT1vkubt4H45Z8uZK9ozOLlQNL+cfvGnD6I6QCxkmRL8Tlv8C3iIQOgKxmjjER0K7BIE52ac5NOG2rbcireqe81a4Aw==);whiteSpace=wrap;html=1;" parent="ocJFT1lrMeXOSPBqILMc-98" vertex="1">
          <mxGeometry x="0.7300000000000182" y="50.5" width="9" height="9" as="geometry" />
        </mxCell>
        <mxCell id="ocJFT1lrMeXOSPBqILMc-102" value="" style="endArrow=none;html=1;rounded=0;exitX=0.5;exitY=0;exitDx=0;exitDy=0;entryX=1;entryY=0.5;entryDx=0;entryDy=0;" parent="ocJFT1lrMeXOSPBqILMc-98" source="ocJFT1lrMeXOSPBqILMc-101" target="ocJFT1lrMeXOSPBqILMc-99" edge="1">
          <mxGeometry width="50" height="50" relative="1" as="geometry">
            <mxPoint x="35.420000000000016" y="60.5" as="sourcePoint" />
            <mxPoint x="85.42000000000002" y="10.5" as="targetPoint" />
          </mxGeometry>
        </mxCell>
        <mxCell id="ocJFT1lrMeXOSPBqILMc-103" value="" style="group" parent="1" connectable="0" vertex="1">
          <mxGeometry x="255.57999999999998" y="839.5" width="10.460000000000036" height="58.5" as="geometry" />
        </mxCell>
        <mxCell id="ocJFT1lrMeXOSPBqILMc-104" value="" style="shape=stencil(vVTRbsIgFP0aXhcKq/pquu0/sF5XIgIBptvfS3upaa1sumZLmibnnHI43Hsp4ZVvhAXCaEP4C2HsmcZXhCeEqwSFt1AH5I7CSbFRgIoPzuzhJLchOUjdgJOhVfkroev4TfvwqjZaRxNptB8pAz2aCanjWvqJZmn7r4SeSsQ27nCAAA75AlnC3u42LuYY8yoyuePwaiPq/bszH3o7XZXVdsbBDeEiS6Ww1N8c1Iq2CROhlw/mCIPSjmvbl/q2d2+hpB5YFMtfWIxTMD47RXk1JI+HWMwPsaIPWHSTkGlWvJE/tfmuWQClpPX5ZvUwXfQFomaEct5/lLD8h4Rd6Sd3rWPxT9gRZw==);whiteSpace=wrap;html=1;rotation=90;" parent="ocJFT1lrMeXOSPBqILMc-103" vertex="1">
          <mxGeometry x="-5.629999999999967" y="24.5" width="21.72" height="10.46" as="geometry" />
        </mxCell>
        <mxCell id="ocJFT1lrMeXOSPBqILMc-105" value="" style="pointerEvents=1;verticalLabelPosition=middle;shadow=0;dashed=0;align=left;html=1;verticalAlign=top;shape=mxgraph.electrical.resistors.resistor_1;labelPosition=center;spacingBottom=0;spacingLeft=25;direction=west;spacingTop=10;spacing=0;points=[[0,0.5,0,0,0],[0.5,0,0,0,-3],[0.5,1,0,0,2],[1,0.5,0,0,0]];fillColor=none;rotation=-90;" parent="ocJFT1lrMeXOSPBqILMc-103" vertex="1">
          <mxGeometry x="-4.359999999999985" y="7.5" width="19" height="4" as="geometry" />
        </mxCell>
        <mxCell id="ocJFT1lrMeXOSPBqILMc-106" value="" style="shape=stencil(tZRNDoIwEIVP063pj7g3qPcoOEojtKRU1NtbqBgr1CjChmTey3y8ZqZFLK4yXgKiOENsgyil2H5sefFLXpWQGqfVXAue5OCcymh1govYmwdByAy0MI3LtgivUcPAiMWpktJChJKV57z4FsaFtL346mCP39+8qrT8AgxopxKnIrr7HruI5gGTmfL62C795HmnA/uJyVyDmwxMxmNZbJXQcrM44enpqNVZ7vtdQe+gNAwYT1vkubt4H45Z8uZK9ozOLlQNL+cfvGnD6I6QCxkmRL8Tlv8C3iIQOgKxmjjER0K7BIE52ac5NOG2rbcireqe81a4Aw==);whiteSpace=wrap;html=1;" parent="ocJFT1lrMeXOSPBqILMc-103" vertex="1">
          <mxGeometry x="0.7300000000000182" y="50.5" width="9" height="9" as="geometry" />
        </mxCell>
        <mxCell id="ocJFT1lrMeXOSPBqILMc-107" value="" style="endArrow=none;html=1;rounded=0;exitX=0.5;exitY=0;exitDx=0;exitDy=0;entryX=1;entryY=0.5;entryDx=0;entryDy=0;" parent="ocJFT1lrMeXOSPBqILMc-103" source="ocJFT1lrMeXOSPBqILMc-106" target="ocJFT1lrMeXOSPBqILMc-104" edge="1">
          <mxGeometry width="50" height="50" relative="1" as="geometry">
            <mxPoint x="35.420000000000016" y="60.5" as="sourcePoint" />
            <mxPoint x="85.42000000000002" y="10.5" as="targetPoint" />
          </mxGeometry>
        </mxCell>
        <mxCell id="ocJFT1lrMeXOSPBqILMc-108" value="" style="group" parent="1" connectable="0" vertex="1">
          <mxGeometry x="265.58" y="839.5" width="10.460000000000036" height="58.5" as="geometry" />
        </mxCell>
        <mxCell id="ocJFT1lrMeXOSPBqILMc-109" value="" style="shape=stencil(vVTRbsIgFP0aXhcKq/pquu0/sF5XIgIBptvfS3upaa1sumZLmibnnHI43Hsp4ZVvhAXCaEP4C2HsmcZXhCeEqwSFt1AH5I7CSbFRgIoPzuzhJLchOUjdgJOhVfkroev4TfvwqjZaRxNptB8pAz2aCanjWvqJZmn7r4SeSsQ27nCAAA75AlnC3u42LuYY8yoyuePwaiPq/bszH3o7XZXVdsbBDeEiS6Ww1N8c1Iq2CROhlw/mCIPSjmvbl/q2d2+hpB5YFMtfWIxTMD47RXk1JI+HWMwPsaIPWHSTkGlWvJE/tfmuWQClpPX5ZvUwXfQFomaEct5/lLD8h4Rd6Sd3rWPxT9gRZw==);whiteSpace=wrap;html=1;rotation=90;" parent="ocJFT1lrMeXOSPBqILMc-108" vertex="1">
          <mxGeometry x="-5.629999999999967" y="24.5" width="21.72" height="10.46" as="geometry" />
        </mxCell>
        <mxCell id="ocJFT1lrMeXOSPBqILMc-110" value="" style="pointerEvents=1;verticalLabelPosition=middle;shadow=0;dashed=0;align=left;html=1;verticalAlign=top;shape=mxgraph.electrical.resistors.resistor_1;labelPosition=center;spacingBottom=0;spacingLeft=25;direction=west;spacingTop=10;spacing=0;points=[[0,0.5,0,0,0],[0.5,0,0,0,-3],[0.5,1,0,0,2],[1,0.5,0,0,0]];fillColor=none;rotation=-90;" parent="ocJFT1lrMeXOSPBqILMc-108" vertex="1">
          <mxGeometry x="-4.359999999999985" y="7.5" width="19" height="4" as="geometry" />
        </mxCell>
        <mxCell id="ocJFT1lrMeXOSPBqILMc-111" value="" style="shape=stencil(tZRNDoIwEIVP063pj7g3qPcoOEojtKRU1NtbqBgr1CjChmTey3y8ZqZFLK4yXgKiOENsgyil2H5sefFLXpWQGqfVXAue5OCcymh1govYmwdByAy0MI3LtgivUcPAiMWpktJChJKV57z4FsaFtL346mCP39+8qrT8AgxopxKnIrr7HruI5gGTmfL62C795HmnA/uJyVyDmwxMxmNZbJXQcrM44enpqNVZ7vtdQe+gNAwYT1vkubt4H45Z8uZK9ozOLlQNL+cfvGnD6I6QCxkmRL8Tlv8C3iIQOgKxmjjER0K7BIE52ac5NOG2rbcireqe81a4Aw==);whiteSpace=wrap;html=1;" parent="ocJFT1lrMeXOSPBqILMc-108" vertex="1">
          <mxGeometry x="0.7300000000000182" y="50.5" width="9" height="9" as="geometry" />
        </mxCell>
        <mxCell id="ocJFT1lrMeXOSPBqILMc-112" value="" style="endArrow=none;html=1;rounded=0;exitX=0.5;exitY=0;exitDx=0;exitDy=0;entryX=1;entryY=0.5;entryDx=0;entryDy=0;" parent="ocJFT1lrMeXOSPBqILMc-108" source="ocJFT1lrMeXOSPBqILMc-111" target="ocJFT1lrMeXOSPBqILMc-109" edge="1">
          <mxGeometry width="50" height="50" relative="1" as="geometry">
            <mxPoint x="35.420000000000016" y="60.5" as="sourcePoint" />
            <mxPoint x="85.42000000000002" y="10.5" as="targetPoint" />
          </mxGeometry>
        </mxCell>
        <mxCell id="ocJFT1lrMeXOSPBqILMc-113" value="" style="group" parent="1" connectable="0" vertex="1">
          <mxGeometry x="275.58" y="839.5" width="10.460000000000036" height="58.5" as="geometry" />
        </mxCell>
        <mxCell id="ocJFT1lrMeXOSPBqILMc-114" value="" style="shape=stencil(vVTRbsIgFP0aXhcKq/pquu0/sF5XIgIBptvfS3upaa1sumZLmibnnHI43Hsp4ZVvhAXCaEP4C2HsmcZXhCeEqwSFt1AH5I7CSbFRgIoPzuzhJLchOUjdgJOhVfkroev4TfvwqjZaRxNptB8pAz2aCanjWvqJZmn7r4SeSsQ27nCAAA75AlnC3u42LuYY8yoyuePwaiPq/bszH3o7XZXVdsbBDeEiS6Ww1N8c1Iq2CROhlw/mCIPSjmvbl/q2d2+hpB5YFMtfWIxTMD47RXk1JI+HWMwPsaIPWHSTkGlWvJE/tfmuWQClpPX5ZvUwXfQFomaEct5/lLD8h4Rd6Sd3rWPxT9gRZw==);whiteSpace=wrap;html=1;rotation=90;" parent="ocJFT1lrMeXOSPBqILMc-113" vertex="1">
          <mxGeometry x="-5.629999999999967" y="24.5" width="21.72" height="10.46" as="geometry" />
        </mxCell>
        <mxCell id="ocJFT1lrMeXOSPBqILMc-115" value="" style="pointerEvents=1;verticalLabelPosition=middle;shadow=0;dashed=0;align=left;html=1;verticalAlign=top;shape=mxgraph.electrical.resistors.resistor_1;labelPosition=center;spacingBottom=0;spacingLeft=25;direction=west;spacingTop=10;spacing=0;points=[[0,0.5,0,0,0],[0.5,0,0,0,-3],[0.5,1,0,0,2],[1,0.5,0,0,0]];fillColor=none;rotation=-90;" parent="ocJFT1lrMeXOSPBqILMc-113" vertex="1">
          <mxGeometry x="-4.359999999999985" y="7.5" width="19" height="4" as="geometry" />
        </mxCell>
        <mxCell id="ocJFT1lrMeXOSPBqILMc-116" value="" style="shape=stencil(tZRNDoIwEIVP063pj7g3qPcoOEojtKRU1NtbqBgr1CjChmTey3y8ZqZFLK4yXgKiOENsgyil2H5sefFLXpWQGqfVXAue5OCcymh1govYmwdByAy0MI3LtgivUcPAiMWpktJChJKV57z4FsaFtL346mCP39+8qrT8AgxopxKnIrr7HruI5gGTmfL62C795HmnA/uJyVyDmwxMxmNZbJXQcrM44enpqNVZ7vtdQe+gNAwYT1vkubt4H45Z8uZK9ozOLlQNL+cfvGnD6I6QCxkmRL8Tlv8C3iIQOgKxmjjER0K7BIE52ac5NOG2rbcireqe81a4Aw==);whiteSpace=wrap;html=1;" parent="ocJFT1lrMeXOSPBqILMc-113" vertex="1">
          <mxGeometry x="0.7300000000000182" y="50.5" width="9" height="9" as="geometry" />
        </mxCell>
        <mxCell id="ocJFT1lrMeXOSPBqILMc-117" value="" style="endArrow=none;html=1;rounded=0;exitX=0.5;exitY=0;exitDx=0;exitDy=0;entryX=1;entryY=0.5;entryDx=0;entryDy=0;" parent="ocJFT1lrMeXOSPBqILMc-113" source="ocJFT1lrMeXOSPBqILMc-116" target="ocJFT1lrMeXOSPBqILMc-114" edge="1">
          <mxGeometry width="50" height="50" relative="1" as="geometry">
            <mxPoint x="35.420000000000016" y="60.5" as="sourcePoint" />
            <mxPoint x="85.42000000000002" y="10.5" as="targetPoint" />
          </mxGeometry>
        </mxCell>
        <mxCell id="gPwVoAXUcxk1GGr7bhU0-77" value="Cnt_up" style="edgeLabel;html=1;align=center;verticalAlign=middle;resizable=0;points=[];" parent="1" vertex="1" connectable="0">
          <mxGeometry x="10.996672455847602" y="-9" as="geometry">
            <mxPoint x="-31" y="-2" as="offset" />
          </mxGeometry>
        </mxCell>
        <mxCell id="ocJFT1lrMeXOSPBqILMc-119" value="" style="endArrow=none;html=1;rounded=0;entryX=0;entryY=0.5;entryDx=0;entryDy=0;entryPerimeter=0;" parent="1" target="ocJFT1lrMeXOSPBqILMc-115" edge="1">
          <mxGeometry width="50" height="50" relative="1" as="geometry">
            <mxPoint x="161" y="840" as="sourcePoint" />
            <mxPoint x="191" y="800" as="targetPoint" />
          </mxGeometry>
        </mxCell>
        <mxCell id="ocJFT1lrMeXOSPBqILMc-120" value="" style="endArrow=none;html=1;rounded=0;exitX=0;exitY=0.5;exitDx=0;exitDy=0;exitPerimeter=0;entryX=1;entryY=0.54;entryDx=0;entryDy=0;entryPerimeter=0;" parent="1" source="ocJFT1lrMeXOSPBqILMc-115" target="ocJFT1lrMeXOSPBqILMc-72" edge="1">
          <mxGeometry width="50" height="50" relative="1" as="geometry">
            <mxPoint x="311" y="850" as="sourcePoint" />
            <mxPoint x="361" y="800" as="targetPoint" />
          </mxGeometry>
        </mxCell>
        <mxCell id="ocJFT1lrMeXOSPBqILMc-121" value="" style="endArrow=none;html=1;rounded=0;exitX=0;exitY=0.5;exitDx=0;exitDy=0;exitPerimeter=0;entryX=1;entryY=0.54;entryDx=0;entryDy=0;entryPerimeter=0;" parent="1" source="ocJFT1lrMeXOSPBqILMc-110" target="ocJFT1lrMeXOSPBqILMc-71" edge="1">
          <mxGeometry width="50" height="50" relative="1" as="geometry">
            <mxPoint x="291" y="850" as="sourcePoint" />
            <mxPoint x="291" y="844" as="targetPoint" />
          </mxGeometry>
        </mxCell>
        <mxCell id="ocJFT1lrMeXOSPBqILMc-122" value="" style="endArrow=none;html=1;rounded=0;exitX=0;exitY=0.5;exitDx=0;exitDy=0;exitPerimeter=0;entryX=0.955;entryY=0.538;entryDx=0;entryDy=0;entryPerimeter=0;" parent="1" target="ocJFT1lrMeXOSPBqILMc-70" edge="1">
          <mxGeometry width="50" height="50" relative="1" as="geometry">
            <mxPoint x="260.77" y="840" as="sourcePoint" />
            <mxPoint x="260.77" y="834" as="targetPoint" />
          </mxGeometry>
        </mxCell>
        <mxCell id="ocJFT1lrMeXOSPBqILMc-123" value="" style="endArrow=none;html=1;rounded=0;exitX=0;exitY=0.5;exitDx=0;exitDy=0;exitPerimeter=0;entryX=1;entryY=0.54;entryDx=0;entryDy=0;entryPerimeter=0;" parent="1" target="ocJFT1lrMeXOSPBqILMc-69" edge="1">
          <mxGeometry width="50" height="50" relative="1" as="geometry">
            <mxPoint x="250.69" y="841" as="sourcePoint" />
            <mxPoint x="250.92000000000002" y="834" as="targetPoint" />
          </mxGeometry>
        </mxCell>
        <mxCell id="ocJFT1lrMeXOSPBqILMc-124" value="" style="endArrow=none;html=1;rounded=0;entryX=1;entryY=0.54;entryDx=0;entryDy=0;entryPerimeter=0;" parent="1" target="ocJFT1lrMeXOSPBqILMc-68" edge="1">
          <mxGeometry width="50" height="50" relative="1" as="geometry">
            <mxPoint x="241" y="840" as="sourcePoint" />
            <mxPoint x="241.9" y="834" as="targetPoint" />
          </mxGeometry>
        </mxCell>
        <mxCell id="ocJFT1lrMeXOSPBqILMc-125" value="" style="endArrow=none;html=1;rounded=0;exitX=0;exitY=0.5;exitDx=0;exitDy=0;exitPerimeter=0;entryX=1;entryY=0.54;entryDx=0;entryDy=0;entryPerimeter=0;" parent="1" edge="1">
          <mxGeometry width="50" height="50" relative="1" as="geometry">
            <mxPoint x="270.69" y="861" as="sourcePoint" />
            <mxPoint x="271" y="854" as="targetPoint" />
          </mxGeometry>
        </mxCell>
        <mxCell id="ocJFT1lrMeXOSPBqILMc-126" value="" style="endArrow=none;html=1;rounded=0;entryX=1;entryY=0.54;entryDx=0;entryDy=0;entryPerimeter=0;exitX=0;exitY=0.5;exitDx=0;exitDy=0;exitPerimeter=0;" parent="1" source="ocJFT1lrMeXOSPBqILMc-90" target="ocJFT1lrMeXOSPBqILMc-67" edge="1">
          <mxGeometry width="50" height="50" relative="1" as="geometry">
            <mxPoint x="194.81" y="845.5" as="sourcePoint" />
            <mxPoint x="194.81" y="839.5" as="targetPoint" />
          </mxGeometry>
        </mxCell>
        <mxCell id="ocJFT1lrMeXOSPBqILMc-127" value="" style="endArrow=none;html=1;rounded=0;entryX=1;entryY=0.54;entryDx=0;entryDy=0;entryPerimeter=0;" parent="1" target="ocJFT1lrMeXOSPBqILMc-66" edge="1">
          <mxGeometry width="50" height="50" relative="1" as="geometry">
            <mxPoint x="221" y="840" as="sourcePoint" />
            <mxPoint x="194.81" y="846" as="targetPoint" />
          </mxGeometry>
        </mxCell>
        <mxCell id="ocJFT1lrMeXOSPBqILMc-128" value="" style="endArrow=none;html=1;rounded=0;entryX=1;entryY=0.54;entryDx=0;entryDy=0;entryPerimeter=0;exitX=0;exitY=0.5;exitDx=0;exitDy=0;exitPerimeter=0;" parent="1" source="ocJFT1lrMeXOSPBqILMc-79" target="ocJFT1lrMeXOSPBqILMc-65" edge="1">
          <mxGeometry width="50" height="50" relative="1" as="geometry">
            <mxPoint x="201" y="852" as="sourcePoint" />
            <mxPoint x="201" y="846" as="targetPoint" />
          </mxGeometry>
        </mxCell>
        <mxCell id="ocJFT1lrMeXOSPBqILMc-130" value="" style="shape=stencil(tZRNDoIwEIVP063pj7g3qPcoOEojtKRU1NtbqBgr1CjChmTey3y8ZqZFLK4yXgKiOENsgyil2H5sefFLXpWQGqfVXAue5OCcymh1govYmwdByAy0MI3LtgivUcPAiMWpktJChJKV57z4FsaFtL346mCP39+8qrT8AgxopxKnIrr7HruI5gGTmfL62C795HmnA/uJyVyDmwxMxmNZbJXQcrM44enpqNVZ7vtdQe+gNAwYT1vkubt4H45Z8uZK9ozOLlQNL+cfvGnD6I6QCxkmRL8Tlv8C3iIQOgKxmjjER0K7BIE52ac5NOG2rbcireqe81a4Aw==);whiteSpace=wrap;html=1;" parent="1" vertex="1">
          <mxGeometry x="150.82999999999998" y="899" width="20" height="20" as="geometry" />
        </mxCell>
        <mxCell id="ocJFT1lrMeXOSPBqILMc-131" value="" style="endArrow=none;html=1;rounded=0;exitX=0;exitY=0.5;exitDx=0;exitDy=0;exitPerimeter=0;entryX=-0.007;entryY=0.903;entryDx=0;entryDy=0;entryPerimeter=0;" parent="1" source="ocJFT1lrMeXOSPBqILMc-133" target="XaXqWwQPE1AyAoHPwtIc-2" edge="1">
          <mxGeometry width="50" height="50" relative="1" as="geometry">
            <mxPoint x="151" y="790" as="sourcePoint" />
            <mxPoint x="161" y="670" as="targetPoint" />
            <Array as="points">
              <mxPoint x="161" y="660" />
            </Array>
          </mxGeometry>
        </mxCell>
        <mxCell id="ocJFT1lrMeXOSPBqILMc-133" value="" style="pointerEvents=1;verticalLabelPosition=middle;shadow=0;dashed=0;align=left;html=1;verticalAlign=top;shape=mxgraph.electrical.resistors.resistor_1;labelPosition=center;spacingBottom=0;spacingLeft=25;direction=west;spacingTop=10;spacing=0;points=[[0,0.5,0,0,0],[0.5,0,0,0,-3],[0.5,1,0,0,2],[1,0.5,0,0,0]];fillColor=none;rotation=-90;" parent="1" vertex="1">
          <mxGeometry x="138.82999999999998" y="867.2900000000001" width="44.3" height="12.71" as="geometry" />
        </mxCell>
        <mxCell id="gPwVoAXUcxk1GGr7bhU0-84" value="CLK" style="text;html=1;align=center;verticalAlign=middle;whiteSpace=wrap;rounded=0;" parent="1" vertex="1">
          <mxGeometry x="559.04" y="-278" width="23.5" height="30" as="geometry" />
        </mxCell>
        <mxCell id="ocJFT1lrMeXOSPBqILMc-134" value="" style="endArrow=none;html=1;rounded=0;entryX=1;entryY=0.5;entryDx=0;entryDy=0;entryPerimeter=0;exitX=0.5;exitY=0;exitDx=0;exitDy=0;" parent="1" source="ocJFT1lrMeXOSPBqILMc-130" target="ocJFT1lrMeXOSPBqILMc-133" edge="1">
          <mxGeometry width="50" height="50" relative="1" as="geometry">
            <mxPoint x="161" y="930" as="sourcePoint" />
            <mxPoint x="161" y="714" as="targetPoint" />
          </mxGeometry>
        </mxCell>
        <mxCell id="PtU5f7NSWad3RshjTATq-1" value="!OE" style="text;html=1;align=center;verticalAlign=middle;whiteSpace=wrap;rounded=0;" parent="1" vertex="1">
          <mxGeometry x="200" y="330" width="38.72" height="10" as="geometry" />
        </mxCell>
        <mxCell id="PtU5f7NSWad3RshjTATq-5" value="" style="endArrow=none;html=1;rounded=0;exitX=0;exitY=0.25;exitDx=0;exitDy=0;exitPerimeter=0;" parent="1" source="PtU5f7NSWad3RshjTATq-9" edge="1">
          <mxGeometry width="50" height="50" relative="1" as="geometry">
            <mxPoint x="570" y="-178" as="sourcePoint" />
            <mxPoint x="570" y="-218" as="targetPoint" />
            <Array as="points">
              <mxPoint x="529.79" y="-199.5" />
              <mxPoint x="569.79" y="-199.5" />
            </Array>
          </mxGeometry>
        </mxCell>
        <mxCell id="PtU5f7NSWad3RshjTATq-7" value="Step" style="text;html=1;align=center;verticalAlign=middle;whiteSpace=wrap;rounded=0;" parent="1" vertex="1">
          <mxGeometry x="597.18" y="-350" width="22.5" height="11.5" as="geometry" />
        </mxCell>
        <mxCell id="PtU5f7NSWad3RshjTATq-8" value="Debug" style="text;html=1;align=center;verticalAlign=middle;whiteSpace=wrap;rounded=0;" parent="1" vertex="1">
          <mxGeometry x="501.29" y="-338.5" width="22.5" height="11.5" as="geometry" />
        </mxCell>
        <mxCell id="PtU5f7NSWad3RshjTATq-9" value="" style="verticalLabelPosition=bottom;shadow=0;dashed=0;align=center;html=1;verticalAlign=top;shape=mxgraph.electrical.logic_gates.logic_gate;operation=and;rotation=90;" parent="1" vertex="1">
          <mxGeometry x="495.79" y="-118.5" width="48" height="29" as="geometry" />
        </mxCell>
        <mxCell id="PtU5f7NSWad3RshjTATq-12" value="" style="verticalLabelPosition=bottom;shadow=0;dashed=0;align=center;html=1;verticalAlign=top;shape=mxgraph.electrical.logic_gates.logic_gate;operation=and;rotation=90;" parent="1" vertex="1">
          <mxGeometry x="534.29" y="-117.5" width="51" height="30" as="geometry" />
        </mxCell>
        <mxCell id="PtU5f7NSWad3RshjTATq-13" value="" style="verticalLabelPosition=bottom;shadow=0;dashed=0;align=center;html=1;verticalAlign=top;shape=mxgraph.electrical.logic_gates.logic_gate;operation=and;rotation=90;" parent="1" vertex="1">
          <mxGeometry x="570" y="-119.5" width="51" height="30" as="geometry" />
        </mxCell>
        <mxCell id="PtU5f7NSWad3RshjTATq-14" value="" style="endArrow=none;html=1;rounded=0;exitX=0;exitY=0.75;exitDx=0;exitDy=0;exitPerimeter=0;" parent="1" source="PtU5f7NSWad3RshjTATq-12" edge="1">
          <mxGeometry width="50" height="50" relative="1" as="geometry">
            <mxPoint x="569.79" y="-129.5" as="sourcePoint" />
            <mxPoint x="610" y="-320" as="targetPoint" />
            <Array as="points">
              <mxPoint x="552.79" y="-189.5" />
              <mxPoint x="609.79" y="-189.5" />
            </Array>
          </mxGeometry>
        </mxCell>
        <mxCell id="PtU5f7NSWad3RshjTATq-15" value="" style="endArrow=none;html=1;rounded=0;exitX=0;exitY=0.25;exitDx=0;exitDy=0;exitPerimeter=0;" parent="1" source="PtU5f7NSWad3RshjTATq-12" edge="1">
          <mxGeometry width="50" height="50" relative="1" as="geometry">
            <mxPoint x="621" y="-119.5" as="sourcePoint" />
            <mxPoint x="569.79" y="-199.5" as="targetPoint" />
            <Array as="points" />
          </mxGeometry>
        </mxCell>
        <mxCell id="PtU5f7NSWad3RshjTATq-16" value="" style="endArrow=none;html=1;rounded=0;entryX=0;entryY=0.75;entryDx=0;entryDy=0;entryPerimeter=0;" parent="1" target="PtU5f7NSWad3RshjTATq-13" edge="1">
          <mxGeometry width="50" height="50" relative="1" as="geometry">
            <mxPoint x="509.79" y="-159.5" as="sourcePoint" />
            <mxPoint x="641.79" y="-200.5" as="targetPoint" />
            <Array as="points">
              <mxPoint x="587.79" y="-159.5" />
            </Array>
          </mxGeometry>
        </mxCell>
        <mxCell id="PtU5f7NSWad3RshjTATq-17" value="" style="endArrow=none;html=1;rounded=0;exitX=0;exitY=0.25;exitDx=0;exitDy=0;exitPerimeter=0;" parent="1" source="PtU5f7NSWad3RshjTATq-13" edge="1">
          <mxGeometry width="50" height="50" relative="1" as="geometry">
            <mxPoint x="587.79" y="-107.5" as="sourcePoint" />
            <mxPoint x="609.79" y="-189.5" as="targetPoint" />
            <Array as="points" />
          </mxGeometry>
        </mxCell>
        <mxCell id="PtU5f7NSWad3RshjTATq-19" value="" style="verticalLabelPosition=bottom;shadow=0;dashed=0;align=center;html=1;verticalAlign=top;shape=mxgraph.electrical.logic_gates.logic_gate;operation=or;rotation=90;" parent="1" vertex="1">
          <mxGeometry x="528.42" y="-59.5" width="62.75" height="60" as="geometry" />
        </mxCell>
        <mxCell id="PtU5f7NSWad3RshjTATq-21" value="" style="endArrow=none;html=1;rounded=0;entryX=1;entryY=0.5;entryDx=0;entryDy=0;entryPerimeter=0;exitX=0.248;exitY=0.517;exitDx=0;exitDy=0;exitPerimeter=0;" parent="1" source="PtU5f7NSWad3RshjTATq-19" target="PtU5f7NSWad3RshjTATq-12" edge="1">
          <mxGeometry width="50" height="50" relative="1" as="geometry">
            <mxPoint x="460" y="-10" as="sourcePoint" />
            <mxPoint x="510" y="-60" as="targetPoint" />
          </mxGeometry>
        </mxCell>
        <mxCell id="PtU5f7NSWad3RshjTATq-22" value="" style="endArrow=none;html=1;rounded=0;entryX=1;entryY=0.5;entryDx=0;entryDy=0;entryPerimeter=0;exitX=0;exitY=0.75;exitDx=0;exitDy=0;exitPerimeter=0;" parent="1" source="PtU5f7NSWad3RshjTATq-19" target="PtU5f7NSWad3RshjTATq-9" edge="1">
          <mxGeometry width="50" height="50" relative="1" as="geometry">
            <mxPoint x="470" as="sourcePoint" />
            <mxPoint x="520" y="-50" as="targetPoint" />
            <Array as="points">
              <mxPoint x="520" y="-60" />
            </Array>
          </mxGeometry>
        </mxCell>
        <mxCell id="PtU5f7NSWad3RshjTATq-23" value="" style="endArrow=none;html=1;rounded=0;entryX=1;entryY=0.5;entryDx=0;entryDy=0;entryPerimeter=0;exitX=0;exitY=0.25;exitDx=0;exitDy=0;exitPerimeter=0;" parent="1" source="PtU5f7NSWad3RshjTATq-19" target="PtU5f7NSWad3RshjTATq-13" edge="1">
          <mxGeometry width="50" height="50" relative="1" as="geometry">
            <mxPoint x="470" as="sourcePoint" />
            <mxPoint x="520" y="-50" as="targetPoint" />
            <Array as="points">
              <mxPoint x="600" y="-60" />
            </Array>
          </mxGeometry>
        </mxCell>
        <mxCell id="PtU5f7NSWad3RshjTATq-24" value="" style="endArrow=none;html=1;rounded=0;entryX=1;entryY=0.5;entryDx=0;entryDy=0;entryPerimeter=0;exitX=1;exitY=0.5;exitDx=0;exitDy=0;" parent="1" source="XaXqWwQPE1AyAoHPwtIc-4" target="PtU5f7NSWad3RshjTATq-19" edge="1">
          <mxGeometry width="50" height="50" relative="1" as="geometry">
            <mxPoint x="430" y="50" as="sourcePoint" />
            <mxPoint x="480" as="targetPoint" />
          </mxGeometry>
        </mxCell>
        <mxCell id="PtU5f7NSWad3RshjTATq-28" value="" style="verticalLabelPosition=bottom;shadow=0;dashed=0;align=center;html=1;verticalAlign=top;shape=mxgraph.electrical.logic_gates.inverter_2;rotation=90;" parent="1" vertex="1">
          <mxGeometry x="493.04" y="-240" width="39" height="22" as="geometry" />
        </mxCell>
        <mxCell id="PtU5f7NSWad3RshjTATq-29" style="edgeStyle=orthogonalEdgeStyle;rounded=0;orthogonalLoop=1;jettySize=auto;html=1;entryX=0;entryY=0.75;entryDx=0;entryDy=0;entryPerimeter=0;endArrow=none;endFill=0;" parent="1" source="PtU5f7NSWad3RshjTATq-28" target="PtU5f7NSWad3RshjTATq-9" edge="1">
          <mxGeometry relative="1" as="geometry" />
        </mxCell>
        <mxCell id="PtU5f7NSWad3RshjTATq-31" value="" style="endArrow=none;html=1;rounded=0;exitX=0;exitY=0.5;exitDx=0;exitDy=0;exitPerimeter=0;" parent="1" source="PtU5f7NSWad3RshjTATq-28" edge="1">
          <mxGeometry width="50" height="50" relative="1" as="geometry">
            <mxPoint x="430" y="-320" as="sourcePoint" />
            <mxPoint x="513" y="-320" as="targetPoint" />
          </mxGeometry>
        </mxCell>
        <mxCell id="PtU5f7NSWad3RshjTATq-32" value="" style="endArrow=none;html=1;rounded=0;exitX=0.003;exitY=0.122;exitDx=0;exitDy=0;exitPerimeter=0;" parent="1" source="XaXqWwQPE1AyAoHPwtIc-2" edge="1">
          <mxGeometry width="50" height="50" relative="1" as="geometry">
            <mxPoint x="140" y="300" as="sourcePoint" />
            <mxPoint x="510" y="-260" as="targetPoint" />
            <Array as="points">
              <mxPoint x="170" y="340" />
              <mxPoint x="170" y="100" />
              <mxPoint x="460" y="100" />
              <mxPoint x="460" y="-130" />
              <mxPoint x="460" y="-260" />
            </Array>
          </mxGeometry>
        </mxCell>
        <mxCell id="PtU5f7NSWad3RshjTATq-33" value="" style="verticalLabelPosition=bottom;shadow=0;dashed=0;align=center;html=1;verticalAlign=top;shape=mxgraph.electrical.logic_gates.logic_gate;operation=and;rotation=0;" parent="1" vertex="1">
          <mxGeometry x="111.05" y="645" width="51.17" height="30" as="geometry" />
        </mxCell>
        <mxCell id="PtU5f7NSWad3RshjTATq-34" value="" style="endArrow=none;html=1;rounded=0;exitX=0;exitY=0.25;exitDx=0;exitDy=0;exitPerimeter=0;" parent="1" source="PtU5f7NSWad3RshjTATq-33" edge="1">
          <mxGeometry width="50" height="50" relative="1" as="geometry">
            <mxPoint x="110" y="650" as="sourcePoint" />
            <mxPoint x="170" y="340" as="targetPoint" />
            <Array as="points">
              <mxPoint x="110" y="340" />
            </Array>
          </mxGeometry>
        </mxCell>
        <mxCell id="PtU5f7NSWad3RshjTATq-35" value="" style="endArrow=none;html=1;rounded=0;entryX=0;entryY=0.75;entryDx=0;entryDy=0;entryPerimeter=0;" parent="1" target="PtU5f7NSWad3RshjTATq-33" edge="1">
          <mxGeometry width="50" height="50" relative="1" as="geometry">
            <mxPoint x="60" y="670" as="sourcePoint" />
            <mxPoint x="110" y="670" as="targetPoint" />
          </mxGeometry>
        </mxCell>
        <mxCell id="PtU5f7NSWad3RshjTATq-36" value="R/!W" style="text;html=1;align=center;verticalAlign=middle;whiteSpace=wrap;rounded=0;" parent="1" vertex="1">
          <mxGeometry x="34" y="664" width="21" height="10" as="geometry" />
        </mxCell>
        <mxCell id="mHcAiZr_AmZXczBtuj8Z-1" value="Debugger" style="rounded=0;whiteSpace=wrap;html=1;fillColor=none;dashed=1;align=right;fontStyle=1;verticalAlign=bottom;fontSize=16;" vertex="1" parent="1">
          <mxGeometry x="450" y="-270" width="266.5" height="300" as="geometry" />
        </mxCell>
      </root>
    </mxGraphModel>
  </diagram>
</mxfile>
